<svg version="1.1" xmlns="http://www.w3.org/2000/svg" xmlns:xlink="http://www.w3.org/1999/xlink" stroke-linecap="round" stroke-linejoin="round" stroke-width="0" fill-rule="evenodd" clip-rule="evenodd" id="HbiarsipoaJ5Uf_qgBjO_top" viewBox="393.7 393.7 5312.5 850" width="5.3125in" height="0.85in" class="w-100 h-100"><defs><style>.HbiarsipoaJ5Uf_qgBjO_fr4 {color: #666666;}
.HbiarsipoaJ5Uf_qgBjO_cu {color: #cccccc;}
.HbiarsipoaJ5Uf_qgBjO_cf {color: #cc9933;}
.HbiarsipoaJ5Uf_qgBjO_sm {color: #004200; opacity: 0.75;}
.HbiarsipoaJ5Uf_qgBjO_ss {color: #ffffff;}
.HbiarsipoaJ5Uf_qgBjO_sp {color: #999999;}
.HbiarsipoaJ5Uf_qgBjO_out {color: #000000;}</style><rect x="-7.871" y="-35.43" width="15.742" height="70.86" id="HJ3hYhs0ELw5VPW7Ib-2_pad-35"/><rect x="-27.556" y="-31.493" width="55.112" height="62.986" id="HJ3hYhs0ELw5VPW7Ib-2_pad-33"/><rect x="-33.56" y="-13.56" width="67.12" height="27.12" rx="13.56" ry="13.56" id="HJ3hYhs0ELw5VPW7Ib-2_pad-31"/><rect x="-33.56" y="-13.56" width="67.12" height="27.12" id="HJ3hYhs0ELw5VPW7Ib-2_pad-29"/><rect x="-15.751" y="-43.31" width="31.502" height="86.62" id="iozeluZXrnkjvFLhf7Fi_pad-34"/><rect x="-35.436" y="-39.373" width="70.872" height="78.746" id="iozeluZXrnkjvFLhf7Fi_pad-32"/><rect x="-41.44" y="-21.44" width="82.88" height="42.88" rx="21.44" ry="21.44" id="iozeluZXrnkjvFLhf7Fi_pad-30"/><rect x="-41.44" y="-21.44" width="82.88" height="42.88" id="iozeluZXrnkjvFLhf7Fi_pad-28"/><circle cx="0" cy="0" r="50" id="iozeluZXrnkjvFLhf7Fi_pad-24"/><circle cx="0" cy="0" r="15" id="zMeUMCejKWTY7VN2O7fw_pad-22"/><rect x="-11.811" y="-39.37" width="23.622" height="78.74" id="zMeUMCejKWTY7VN2O7fw_pad-18"/><rect x="-31.496" y="-35.433" width="62.992" height="70.866" id="zMeUMCejKWTY7VN2O7fw_pad-19"/><rect x="-37.5" y="-17.5" width="75" height="35" rx="17.5" ry="17.5" id="zMeUMCejKWTY7VN2O7fw_pad-20"/><rect x="-37.5" y="-17.5" width="75" height="35" id="zMeUMCejKWTY7VN2O7fw_pad-21"/><circle cx="0" cy="0" r="9.55" id="a95BNXZ9tULB81MCFv91_pad-1"/><circle cx="0" cy="0" r="50" id="a95BNXZ9tULB81MCFv91_pad-2"/><g id="HbiarsipoaJ5Uf_qgBjO_top_solderpaste"><use xlink:href="#HJ3hYhs0ELw5VPW7Ib-2_pad-35" x="5093.7" y="633.661"/><use xlink:href="#HJ3hYhs0ELw5VPW7Ib-2_pad-35" x="5143.7" y="633.661"/><use xlink:href="#HJ3hYhs0ELw5VPW7Ib-2_pad-35" x="5193.7" y="633.661"/><use xlink:href="#HJ3hYhs0ELw5VPW7Ib-2_pad-35" x="5243.7" y="633.661"/><use xlink:href="#HJ3hYhs0ELw5VPW7Ib-2_pad-35" x="5293.7" y="633.661"/><use xlink:href="#HJ3hYhs0ELw5VPW7Ib-2_pad-35" x="5343.7" y="633.661"/><use xlink:href="#HJ3hYhs0ELw5VPW7Ib-2_pad-35" x="5393.7" y="633.661"/><use xlink:href="#HJ3hYhs0ELw5VPW7Ib-2_pad-35" x="5443.7" y="633.661"/><use xlink:href="#HJ3hYhs0ELw5VPW7Ib-2_pad-35" x="5493.7" y="633.661"/><use xlink:href="#HJ3hYhs0ELw5VPW7Ib-2_pad-35" x="5543.7" y="633.661"/><use xlink:href="#HJ3hYhs0ELw5VPW7Ib-2_pad-35" x="5593.7" y="633.661"/><use xlink:href="#HJ3hYhs0ELw5VPW7Ib-2_pad-35" x="5643.7" y="633.661"/><use xlink:href="#HJ3hYhs0ELw5VPW7Ib-2_pad-35" x="5643.7" y="1003.739"/><use xlink:href="#HJ3hYhs0ELw5VPW7Ib-2_pad-35" x="5593.7" y="1003.739"/><use xlink:href="#HJ3hYhs0ELw5VPW7Ib-2_pad-35" x="5543.7" y="1003.739"/><use xlink:href="#HJ3hYhs0ELw5VPW7Ib-2_pad-35" x="5493.7" y="1003.739"/><use xlink:href="#HJ3hYhs0ELw5VPW7Ib-2_pad-35" x="5443.7" y="1003.739"/><use xlink:href="#HJ3hYhs0ELw5VPW7Ib-2_pad-35" x="5393.7" y="1003.739"/><use xlink:href="#HJ3hYhs0ELw5VPW7Ib-2_pad-35" x="5343.7" y="1003.739"/><use xlink:href="#HJ3hYhs0ELw5VPW7Ib-2_pad-35" x="5293.7" y="1003.739"/><use xlink:href="#HJ3hYhs0ELw5VPW7Ib-2_pad-35" x="5243.7" y="1003.739"/><use xlink:href="#HJ3hYhs0ELw5VPW7Ib-2_pad-35" x="5193.7" y="1003.739"/><use xlink:href="#HJ3hYhs0ELw5VPW7Ib-2_pad-35" x="5143.7" y="1003.739"/><use xlink:href="#HJ3hYhs0ELw5VPW7Ib-2_pad-35" x="5093.7" y="1003.739"/><use xlink:href="#HJ3hYhs0ELw5VPW7Ib-2_pad-33" x="1212.333" y="818.7"/><use xlink:href="#HJ3hYhs0ELw5VPW7Ib-2_pad-33" x="1322.569" y="818.7"/><use xlink:href="#HJ3hYhs0ELw5VPW7Ib-2_pad-33" x="1537.333" y="818.7"/><use xlink:href="#HJ3hYhs0ELw5VPW7Ib-2_pad-33" x="1647.569" y="818.7"/><use xlink:href="#HJ3hYhs0ELw5VPW7Ib-2_pad-33" x="1862.333" y="818.7"/><use xlink:href="#HJ3hYhs0ELw5VPW7Ib-2_pad-33" x="1972.569" y="818.7"/><use xlink:href="#HJ3hYhs0ELw5VPW7Ib-2_pad-33" x="2187.333" y="818.7"/><use xlink:href="#HJ3hYhs0ELw5VPW7Ib-2_pad-33" x="2297.569" y="818.7"/><use xlink:href="#HJ3hYhs0ELw5VPW7Ib-2_pad-33" x="2512.333" y="818.7"/><use xlink:href="#HJ3hYhs0ELw5VPW7Ib-2_pad-33" x="2622.569" y="818.7"/><use xlink:href="#HJ3hYhs0ELw5VPW7Ib-2_pad-33" x="2837.333" y="818.7"/><use xlink:href="#HJ3hYhs0ELw5VPW7Ib-2_pad-33" x="2947.569" y="818.7"/><use xlink:href="#HJ3hYhs0ELw5VPW7Ib-2_pad-33" x="3162.333" y="818.7"/><use xlink:href="#HJ3hYhs0ELw5VPW7Ib-2_pad-33" x="3272.569" y="818.7"/><use xlink:href="#HJ3hYhs0ELw5VPW7Ib-2_pad-33" x="3487.333" y="818.7"/><use xlink:href="#HJ3hYhs0ELw5VPW7Ib-2_pad-33" x="3597.569" y="818.7"/><use xlink:href="#HJ3hYhs0ELw5VPW7Ib-2_pad-33" x="3812.331" y="818.7"/><use xlink:href="#HJ3hYhs0ELw5VPW7Ib-2_pad-33" x="3922.567" y="818.7"/><use xlink:href="#HJ3hYhs0ELw5VPW7Ib-2_pad-33" x="4137.331" y="818.7"/><use xlink:href="#HJ3hYhs0ELw5VPW7Ib-2_pad-33" x="4247.567" y="818.7"/><use xlink:href="#HJ3hYhs0ELw5VPW7Ib-2_pad-33" x="4462.331" y="818.7"/><use xlink:href="#HJ3hYhs0ELw5VPW7Ib-2_pad-33" x="4572.567" y="818.7"/><use xlink:href="#HJ3hYhs0ELw5VPW7Ib-2_pad-33" x="4787.331" y="818.7"/><use xlink:href="#HJ3hYhs0ELw5VPW7Ib-2_pad-33" x="4897.567" y="818.7"/><use xlink:href="#HJ3hYhs0ELw5VPW7Ib-2_pad-33" x="972.619" y="1018.7"/><use xlink:href="#HJ3hYhs0ELw5VPW7Ib-2_pad-33" x="862.382" y="1018.7"/><use xlink:href="#HJ3hYhs0ELw5VPW7Ib-2_pad-33" x="972.619" y="818.7"/><use xlink:href="#HJ3hYhs0ELw5VPW7Ib-2_pad-33" x="862.382" y="818.7"/><use xlink:href="#HJ3hYhs0ELw5VPW7Ib-2_pad-31" x="456.2" y="606.2"/><use xlink:href="#HJ3hYhs0ELw5VPW7Ib-2_pad-29" x="456.2" y="656.2"/><use xlink:href="#HJ3hYhs0ELw5VPW7Ib-2_pad-29" x="456.2" y="706.2"/><use xlink:href="#HJ3hYhs0ELw5VPW7Ib-2_pad-29" x="456.2" y="756.2"/><use xlink:href="#HJ3hYhs0ELw5VPW7Ib-2_pad-29" x="456.2" y="806.2"/><use xlink:href="#HJ3hYhs0ELw5VPW7Ib-2_pad-29" x="456.2" y="856.2"/><use xlink:href="#HJ3hYhs0ELw5VPW7Ib-2_pad-29" x="456.2" y="906.2"/><use xlink:href="#HJ3hYhs0ELw5VPW7Ib-2_pad-29" x="456.2" y="956.2"/><use xlink:href="#HJ3hYhs0ELw5VPW7Ib-2_pad-29" x="456.2" y="1006.2"/><use xlink:href="#HJ3hYhs0ELw5VPW7Ib-2_pad-33" x="972.619" y="618.7"/><use xlink:href="#HJ3hYhs0ELw5VPW7Ib-2_pad-33" x="862.382" y="618.7"/></g><g id="HbiarsipoaJ5Uf_qgBjO_top_soldermask"><use xlink:href="#iozeluZXrnkjvFLhf7Fi_pad-34" x="5093.7" y="633.661"/><use xlink:href="#iozeluZXrnkjvFLhf7Fi_pad-34" x="5143.7" y="633.661"/><use xlink:href="#iozeluZXrnkjvFLhf7Fi_pad-34" x="5193.7" y="633.661"/><use xlink:href="#iozeluZXrnkjvFLhf7Fi_pad-34" x="5243.7" y="633.661"/><use xlink:href="#iozeluZXrnkjvFLhf7Fi_pad-34" x="5293.7" y="633.661"/><use xlink:href="#iozeluZXrnkjvFLhf7Fi_pad-34" x="5343.7" y="633.661"/><use xlink:href="#iozeluZXrnkjvFLhf7Fi_pad-34" x="5393.7" y="633.661"/><use xlink:href="#iozeluZXrnkjvFLhf7Fi_pad-34" x="5443.7" y="633.661"/><use xlink:href="#iozeluZXrnkjvFLhf7Fi_pad-34" x="5493.7" y="633.661"/><use xlink:href="#iozeluZXrnkjvFLhf7Fi_pad-34" x="5543.7" y="633.661"/><use xlink:href="#iozeluZXrnkjvFLhf7Fi_pad-34" x="5593.7" y="633.661"/><use xlink:href="#iozeluZXrnkjvFLhf7Fi_pad-34" x="5643.7" y="633.661"/><use xlink:href="#iozeluZXrnkjvFLhf7Fi_pad-34" x="5643.7" y="1003.739"/><use xlink:href="#iozeluZXrnkjvFLhf7Fi_pad-34" x="5593.7" y="1003.739"/><use xlink:href="#iozeluZXrnkjvFLhf7Fi_pad-34" x="5543.7" y="1003.739"/><use xlink:href="#iozeluZXrnkjvFLhf7Fi_pad-34" x="5493.7" y="1003.739"/><use xlink:href="#iozeluZXrnkjvFLhf7Fi_pad-34" x="5443.7" y="1003.739"/><use xlink:href="#iozeluZXrnkjvFLhf7Fi_pad-34" x="5393.7" y="1003.739"/><use xlink:href="#iozeluZXrnkjvFLhf7Fi_pad-34" x="5343.7" y="1003.739"/><use xlink:href="#iozeluZXrnkjvFLhf7Fi_pad-34" x="5293.7" y="1003.739"/><use xlink:href="#iozeluZXrnkjvFLhf7Fi_pad-34" x="5243.7" y="1003.739"/><use xlink:href="#iozeluZXrnkjvFLhf7Fi_pad-34" x="5193.7" y="1003.739"/><use xlink:href="#iozeluZXrnkjvFLhf7Fi_pad-34" x="5143.7" y="1003.739"/><use xlink:href="#iozeluZXrnkjvFLhf7Fi_pad-34" x="5093.7" y="1003.739"/><use xlink:href="#iozeluZXrnkjvFLhf7Fi_pad-32" x="1212.333" y="818.7"/><use xlink:href="#iozeluZXrnkjvFLhf7Fi_pad-32" x="1322.569" y="818.7"/><use xlink:href="#iozeluZXrnkjvFLhf7Fi_pad-32" x="1537.333" y="818.7"/><use xlink:href="#iozeluZXrnkjvFLhf7Fi_pad-32" x="1647.569" y="818.7"/><use xlink:href="#iozeluZXrnkjvFLhf7Fi_pad-32" x="1862.333" y="818.7"/><use xlink:href="#iozeluZXrnkjvFLhf7Fi_pad-32" x="1972.569" y="818.7"/><use xlink:href="#iozeluZXrnkjvFLhf7Fi_pad-32" x="2187.333" y="818.7"/><use xlink:href="#iozeluZXrnkjvFLhf7Fi_pad-32" x="2297.569" y="818.7"/><use xlink:href="#iozeluZXrnkjvFLhf7Fi_pad-32" x="2512.333" y="818.7"/><use xlink:href="#iozeluZXrnkjvFLhf7Fi_pad-32" x="2622.569" y="818.7"/><use xlink:href="#iozeluZXrnkjvFLhf7Fi_pad-32" x="2837.333" y="818.7"/><use xlink:href="#iozeluZXrnkjvFLhf7Fi_pad-32" x="2947.569" y="818.7"/><use xlink:href="#iozeluZXrnkjvFLhf7Fi_pad-32" x="3162.333" y="818.7"/><use xlink:href="#iozeluZXrnkjvFLhf7Fi_pad-32" x="3272.569" y="818.7"/><use xlink:href="#iozeluZXrnkjvFLhf7Fi_pad-32" x="3487.333" y="818.7"/><use xlink:href="#iozeluZXrnkjvFLhf7Fi_pad-32" x="3597.569" y="818.7"/><use xlink:href="#iozeluZXrnkjvFLhf7Fi_pad-32" x="3812.331" y="818.7"/><use xlink:href="#iozeluZXrnkjvFLhf7Fi_pad-32" x="3922.567" y="818.7"/><use xlink:href="#iozeluZXrnkjvFLhf7Fi_pad-32" x="4137.331" y="818.7"/><use xlink:href="#iozeluZXrnkjvFLhf7Fi_pad-32" x="4247.567" y="818.7"/><use xlink:href="#iozeluZXrnkjvFLhf7Fi_pad-32" x="4462.331" y="818.7"/><use xlink:href="#iozeluZXrnkjvFLhf7Fi_pad-32" x="4572.567" y="818.7"/><use xlink:href="#iozeluZXrnkjvFLhf7Fi_pad-32" x="4787.331" y="818.7"/><use xlink:href="#iozeluZXrnkjvFLhf7Fi_pad-32" x="4897.567" y="818.7"/><use xlink:href="#iozeluZXrnkjvFLhf7Fi_pad-32" x="972.619" y="1018.7"/><use xlink:href="#iozeluZXrnkjvFLhf7Fi_pad-32" x="862.382" y="1018.7"/><use xlink:href="#iozeluZXrnkjvFLhf7Fi_pad-32" x="972.619" y="818.7"/><use xlink:href="#iozeluZXrnkjvFLhf7Fi_pad-32" x="862.382" y="818.7"/><use xlink:href="#iozeluZXrnkjvFLhf7Fi_pad-30" x="456.2" y="606.2"/><use xlink:href="#iozeluZXrnkjvFLhf7Fi_pad-28" x="456.2" y="656.2"/><use xlink:href="#iozeluZXrnkjvFLhf7Fi_pad-28" x="456.2" y="706.2"/><use xlink:href="#iozeluZXrnkjvFLhf7Fi_pad-28" x="456.2" y="756.2"/><use xlink:href="#iozeluZXrnkjvFLhf7Fi_pad-28" x="456.2" y="806.2"/><use xlink:href="#iozeluZXrnkjvFLhf7Fi_pad-28" x="456.2" y="856.2"/><use xlink:href="#iozeluZXrnkjvFLhf7Fi_pad-28" x="456.2" y="906.2"/><use xlink:href="#iozeluZXrnkjvFLhf7Fi_pad-28" x="456.2" y="956.2"/><use xlink:href="#iozeluZXrnkjvFLhf7Fi_pad-28" x="456.2" y="1006.2"/><use xlink:href="#iozeluZXrnkjvFLhf7Fi_pad-32" x="972.619" y="618.7"/><use xlink:href="#iozeluZXrnkjvFLhf7Fi_pad-32" x="862.382" y="618.7"/><use xlink:href="#iozeluZXrnkjvFLhf7Fi_pad-24" x="468.7" y="468.7"/><use xlink:href="#iozeluZXrnkjvFLhf7Fi_pad-24" x="468.7" y="1168.7"/><use xlink:href="#iozeluZXrnkjvFLhf7Fi_pad-24" x="5631.2" y="468.7"/><use xlink:href="#iozeluZXrnkjvFLhf7Fi_pad-24" x="5631.2" y="1168.7"/></g><g id="HbiarsipoaJ5Uf_qgBjO_top_silkscreen"><path d="M 5061.623 692.717 5675.777 692.717 M 5061.623 944.683 5675.777 944.683 M 5675.777 692.717 5675.777 944.683 M 5061.623 692.717 5061.623 787.193 M 5061.623 850.207 5061.623 944.683 M 5061.623 787.193 A 31.507 31.507 0 0 1 5061.623 850.207 M 1255.671 787.235 1279.23 787.235 M 1255.671 850.165 1279.23 850.165 M 1580.671 787.235 1604.23 787.235 M 1580.671 850.165 1604.23 850.165 M 1905.671 787.235 1929.23 787.235 M 1905.671 850.165 1929.23 850.165 M 2230.671 787.235 2254.23 787.235 M 2230.671 850.165 2254.23 850.165 M 2555.671 787.235 2579.23 787.235 M 2555.671 850.165 2579.23 850.165 M 2880.671 787.235 2904.23 787.235 M 2880.671 850.165 2904.23 850.165 M 3205.671 787.235 3229.23 787.235 M 3205.671 850.165 3229.23 850.165 M 3530.671 787.235 3554.23 787.235 M 3530.671 850.165 3554.23 850.165 M 3855.67 787.235 3879.229 787.235 M 3855.67 850.165 3879.229 850.165 M 4180.67 787.235 4204.229 787.235 M 4180.67 850.165 4204.229 850.165 M 4505.67 787.235 4529.229 787.235 M 4505.67 850.165 4529.229 850.165 M 4830.67 787.235 4854.229 787.235 M 4830.67 850.165 4854.229 850.165 M 929.28 1050.165 905.721 1050.165 M 929.28 987.235 905.721 987.235 M 929.28 850.165 905.721 850.165 M 929.28 787.235 905.721 787.235 M 929.28 650.165 905.721 650.165 M 929.28 587.235 905.721 587.235" fill="none" stroke-width="9.843"/><path d="M 1264.939 1004.891 1250.569 1000.138 1240.952 985.768 1236.199 961.892 1236.199 947.521 1240.952 923.645 1250.569 909.275 1264.939 904.522 1274.446 904.522 1288.816 909.275 1298.322 923.645 1303.186 947.521 1303.186 961.892 1298.322 985.768 1288.816 1000.138 1274.446 1004.891 1264.939 1004.891 M 1298.322 985.768 1240.952 923.645 M 1573.699 985.768 1583.316 990.632 1597.686 1004.891 1597.686 904.522 M 1891.063 981.015 1891.063 985.768 1895.816 995.385 1900.569 1000.138 1910.186 1004.891 1929.309 1004.891 1938.816 1000.138 1943.569 995.385 1948.433 985.768 1948.433 976.262 1943.569 966.645 1934.063 952.385 1886.199 904.522 1953.186 904.522 M 2220.816 1004.891 2273.322 1004.891 2244.692 966.645 2259.063 966.645 2268.569 961.892 2273.322 957.138 2278.186 942.768 2278.186 933.262 2273.322 918.892 2263.816 909.275 2249.446 904.522 2235.076 904.522 2220.816 909.275 2216.063 914.139 2211.199 923.645 M 2584.063 904.522 2584.063 1004.891 2536.199 938.015 2607.939 938.015 M 2918.569 1004.891 2870.816 1004.891 2866.063 961.892 2870.816 966.645 2885.186 971.508 2899.446 971.508 2913.816 966.645 2923.433 957.138 2928.186 942.768 2928.186 933.262 2923.433 918.892 2913.816 909.275 2899.446 904.522 2885.186 904.522 2870.816 909.275 2866.063 914.139 2861.199 923.645 M 3243.569 990.632 3238.816 1000.138 3224.446 1004.891 3214.939 1004.891 3200.569 1000.138 3190.952 985.768 3186.199 961.892 3186.199 938.015 3190.952 918.892 3200.569 909.275 3214.939 904.522 3219.692 904.522 3233.952 909.275 3243.569 918.892 3248.322 933.262 3248.322 938.015 3243.569 952.385 3233.952 961.892 3219.692 966.645 3214.939 966.645 3200.569 961.892 3190.952 952.385 3186.199 938.015 M 3530.322 904.522 3578.186 1004.891 3511.199 1004.891 M 3860.076 1004.891 3845.816 1000.138 3840.952 990.632 3840.952 981.015 3845.816 971.508 3855.322 966.645 3874.446 961.892 3888.816 957.138 3898.322 947.521 3903.075 938.015 3903.075 923.645 3898.322 914.139 3893.569 909.275 3879.199 904.522 3860.076 904.522 3845.816 909.275 3840.952 914.139 3836.199 923.645 3836.199 938.015 3840.952 947.521 3850.569 957.138 3864.829 961.892 3883.952 966.645 3893.569 971.508 3898.322 981.015 3898.322 990.632 3893.569 1000.138 3879.199 1004.891 3860.076 1004.891 M 4210.933 971.508 4206.069 957.138 4196.563 947.521 4182.192 942.768 4177.439 942.768 4163.069 947.521 4153.563 957.138 4148.699 971.508 4148.699 976.262 4153.563 990.632 4163.069 1000.138 4177.439 1004.891 4182.192 1004.891 4196.563 1000.138 4206.069 990.632 4210.933 971.508 4210.933 947.521 4206.069 923.645 4196.563 909.275 4182.192 904.522 4172.686 904.522 4158.316 909.275 4153.563 918.892 M 4448.699 985.768 4458.316 990.632 4472.686 1004.891 4472.686 904.522 M 4532.305 1004.891 4517.935 1000.138 4508.318 985.768 4503.565 961.892 4503.565 947.521 4508.318 923.645 4517.935 909.275 4532.305 904.522 4541.811 904.522 4556.181 909.275 4565.688 923.645 4570.551 947.521 4570.551 961.892 4565.688 985.768 4556.181 1000.138 4541.811 1004.891 4532.305 1004.891 M 4565.688 985.768 4508.318 923.645 M 4798.699 985.768 4808.316 990.632 4822.686 1004.891 4822.686 904.522 M 4853.565 985.768 4863.182 990.632 4877.552 1004.891 4877.552 904.522" fill="none" stroke-width="15.439"/><path d="M 2372.157 604.745 2406.556 604.745 2418.052 608.636 2421.943 612.439 2425.746 620.044 2425.746 627.737 2421.943 635.342 2418.052 639.233 2406.556 643.036 2372.157 643.036 2372.157 562.652 M 2398.951 604.745 2425.746 562.652 M 2507.841 623.935 2504.038 631.54 2496.344 639.233 2488.739 643.036 2473.441 643.036 2465.747 639.233 2458.142 631.54 2454.251 623.935 2450.449 612.439 2450.449 593.249 2454.251 581.841 2458.142 574.148 2465.747 566.543 2473.441 562.652 2488.739 562.652 2496.344 566.543 2504.038 574.148 2507.841 581.841 2507.841 593.249 2488.739 593.249 M 2532.543 643.036 2532.543 562.652 2567.032 562.652 2578.528 566.543 2582.33 570.345 2586.133 577.951 2586.133 589.447 2582.33 597.14 2578.528 600.943 2567.032 604.745 2578.528 608.636 2582.33 612.439 2586.133 620.044 2586.133 627.737 2582.33 635.342 2578.528 639.233 2567.032 643.036 2532.543 643.036 M 2532.543 604.745 2567.032 604.745 M 2610.835 643.036 2641.433 604.745 2641.433 562.652 M 2672.03 643.036 2641.433 604.745 M 2696.733 602.8 2740.948 602.8 M 2765.651 604.745 2800.051 604.745 2811.547 608.636 2815.438 612.439 2819.24 620.044 2819.24 627.737 2815.438 635.342 2811.547 639.233 2800.051 643.036 2765.651 643.036 2765.651 562.652 M 2792.446 604.745 2819.24 562.652 M 2866.935 643.036 2859.242 639.233 2851.637 631.54 2847.746 623.935 2843.943 612.439 2843.943 593.249 2847.746 581.841 2851.637 574.148 2859.242 566.543 2866.935 562.652 2882.234 562.652 2889.839 566.543 2897.533 574.148 2901.335 581.841 2905.138 593.249 2905.138 612.439 2901.335 623.935 2897.533 631.54 2889.839 639.233 2882.234 643.036 2866.935 643.036 M 2991.035 562.652 2991.035 643.036 2960.438 562.652 2929.84 643.036 2929.84 562.652 M 3147.089 631.54 3139.484 639.233 3127.987 643.036 3112.689 643.036 3101.193 639.233 3093.499 631.54 3093.499 623.935 3097.39 616.241 3101.193 612.439 3108.798 608.636 3131.79 600.943 3139.484 597.14 3143.286 593.249 3147.089 585.644 3147.089 574.148 3139.484 566.543 3127.987 562.652 3112.689 562.652 3101.193 566.543 3093.499 574.148 M 3221.49 643.036 3171.791 643.036 3171.791 562.652 3221.49 562.652 M 3171.791 604.745 3202.389 604.745 M 3299.782 643.036 3299.782 562.652 3246.193 643.036 3246.193 562.652 M 3378.074 631.54 3370.469 639.233 3358.973 643.036 3343.674 643.036 3332.178 639.233 3324.485 631.54 3324.485 623.935 3328.376 616.241 3332.178 612.439 3339.783 608.636 3362.775 600.943 3370.469 597.14 3374.271 593.249 3378.074 585.644 3378.074 574.148 3370.469 566.543 3358.973 562.652 3343.674 562.652 3332.178 566.543 3324.485 574.148 M 3425.769 643.036 3418.075 639.233 3410.47 631.54 3406.579 623.935 3402.777 612.439 3402.777 593.249 3406.579 581.841 3410.47 574.148 3418.075 566.543 3425.769 562.652 3441.068 562.652 3448.673 566.543 3456.366 574.148 3460.169 581.841 3463.971 593.249 3463.971 612.439 3460.169 623.935 3456.366 631.54 3448.673 639.233 3441.068 643.036 3425.769 643.036 M 3488.674 604.745 3523.074 604.745 3534.57 608.636 3538.461 612.439 3542.263 620.044 3542.263 627.737 3538.461 635.342 3534.57 639.233 3523.074 643.036 3488.674 643.036 3488.674 562.652 M 3515.469 604.745 3542.263 562.652 M 3644.728 643.036 3644.728 562.652 3679.216 562.652 3690.712 566.543 3694.515 570.345 3698.317 577.951 3698.317 589.447 3694.515 597.14 3690.712 600.943 3679.216 604.745 3690.712 608.636 3694.515 612.439 3698.317 620.044 3698.317 627.737 3694.515 635.342 3690.712 639.233 3679.216 643.036 3644.728 643.036 M 3644.728 604.745 3679.216 604.745 M 3784.303 562.652 3753.617 643.036 3723.02 562.652 M 3734.516 589.447 3772.807 589.447 M 3809.006 604.745 3843.405 604.745 3854.901 608.636 3858.792 612.439 3862.595 620.044 3862.595 627.737 3858.792 635.342 3854.901 639.233 3843.405 643.036 3809.006 643.036 3809.006 562.652 M 3835.8 604.745 3862.595 562.652" fill="none" stroke-width="12.351"/><path d="M 531.269 634.956 531.269 600.512 M 514.069 617.712 548.513 617.712" fill="none" stroke-width="6.176"/><path d="M 521.09 665.563 548.725 665.563" fill="none" stroke-width="7.72"/><path d="M 528.568 727.83 527.142 730.682 524.257 733.567 521.405 734.993 515.668 734.993 512.783 733.567 509.931 730.682 508.472 727.83 507.046 723.519 507.046 716.323 508.472 712.045 509.931 709.16 512.783 706.308 515.668 704.849 521.405 704.849 524.257 706.308 527.142 709.16 528.568 712.045 M 557.928 730.682 555.076 733.567 550.765 734.993 545.028 734.993 540.717 733.567 537.832 730.682 537.832 727.83 539.291 724.945 540.717 723.519 543.569 722.093 552.191 719.208 555.076 717.782 556.502 716.323 557.928 713.471 557.928 709.16 555.076 706.308 550.765 704.849 545.028 704.849 540.717 706.308 537.832 709.16 M 575.813 734.96 571.502 733.534 568.617 729.223 567.191 722.06 567.191 717.749 568.617 710.586 571.502 706.275 575.813 704.849 578.665 704.849 582.976 706.275 585.828 710.586 587.287 717.749 587.287 722.06 585.828 729.223 582.976 733.534 578.665 734.96 575.813 734.96 M 585.828 729.223 568.617 710.586 M 528.567 777.83 527.141 780.682 524.256 783.567 521.404 784.993 515.667 784.993 512.782 783.567 509.93 780.682 508.471 777.83 507.045 773.519 507.045 766.323 508.471 762.045 509.93 759.16 512.782 756.308 515.667 754.849 521.404 754.849 524.256 756.308 527.141 759.16 528.567 762.045 M 557.926 780.682 555.074 783.567 550.763 784.993 545.026 784.993 540.715 783.567 537.83 780.682 537.83 777.83 539.289 774.945 540.715 773.519 543.567 772.093 552.189 769.208 555.074 767.782 556.5 766.323 557.926 763.471 557.926 759.16 555.074 756.308 550.763 754.849 545.026 754.849 540.715 756.308 537.83 759.16 M 567.19 779.223 570.075 780.682 574.386 784.96 574.386 754.849 M 527.141 830.682 524.289 833.567 519.978 834.993 514.241 834.993 509.93 833.567 507.045 830.682 507.045 827.83 508.504 824.945 509.93 823.519 512.782 822.093 521.404 819.208 524.289 817.782 525.715 816.323 527.141 813.471 527.141 809.16 524.289 806.308 519.978 804.849 514.241 804.849 509.93 806.308 507.045 809.16 M 556.5 830.682 553.648 833.567 549.337 834.993 543.6 834.993 539.289 833.567 536.404 830.682 536.404 827.83 537.863 824.945 539.289 823.519 542.141 822.093 550.763 819.208 553.648 817.782 555.074 816.323 556.5 813.471 556.5 809.16 553.648 806.308 549.337 804.849 543.6 804.849 539.289 806.308 536.404 809.16 M 574.386 834.96 570.075 833.534 567.19 829.223 565.764 822.06 565.764 817.749 567.19 810.586 570.075 806.275 574.386 804.849 577.238 804.849 581.549 806.275 584.401 810.586 585.86 817.749 585.86 822.06 584.401 829.223 581.549 833.534 577.238 834.96 574.386 834.96 M 584.401 829.223 567.19 810.586 M 527.142 880.682 524.29 883.567 519.979 884.993 514.242 884.993 509.931 883.567 507.046 880.682 507.046 877.83 508.505 874.945 509.931 873.519 512.783 872.093 521.405 869.208 524.29 867.782 525.716 866.323 527.142 863.471 527.142 859.16 524.29 856.308 519.979 854.849 514.242 854.849 509.931 856.308 507.046 859.16 M 556.502 880.682 553.65 883.567 549.339 884.993 543.602 884.993 539.291 883.567 536.406 880.682 536.406 877.83 537.865 874.945 539.291 873.519 542.143 872.093 550.765 869.208 553.65 867.782 555.076 866.323 556.502 863.471 556.502 859.16 553.65 856.308 549.339 854.849 543.602 854.849 539.291 856.308 536.406 859.16 M 565.765 879.223 568.65 880.682 572.961 884.96 572.961 854.849 M 527.142 930.682 524.29 933.567 519.979 934.993 514.242 934.993 509.931 933.567 507.046 930.682 507.046 927.83 508.505 924.945 509.931 923.519 512.783 922.093 521.405 919.208 524.29 917.782 525.716 916.323 527.142 913.471 527.142 909.16 524.29 906.308 519.979 904.849 514.242 904.849 509.931 906.308 507.046 909.16 M 556.502 930.682 553.65 933.567 549.339 934.993 543.602 934.993 539.291 933.567 536.406 930.682 536.406 927.83 537.865 924.945 539.291 923.519 542.143 922.093 550.765 919.208 553.65 917.782 555.076 916.323 556.502 913.471 556.502 909.16 553.65 906.308 549.339 904.849 543.602 904.849 539.291 906.308 536.406 909.16 M 567.224 927.797 567.224 929.223 568.65 932.108 570.076 933.534 572.961 934.96 578.698 934.96 581.55 933.534 582.976 932.108 584.435 929.223 584.435 926.371 582.976 923.486 580.124 919.208 565.765 904.849 585.861 904.849 M 527.142 980.684 524.29 983.569 519.979 984.995 514.242 984.995 509.931 983.569 507.046 980.684 507.046 977.832 508.505 974.947 509.931 973.521 512.783 972.095 521.405 969.21 524.29 967.784 525.716 966.325 527.142 963.473 527.142 959.162 524.29 956.31 519.979 954.851 514.242 954.851 509.931 956.31 507.046 959.162 M 556.502 980.684 553.65 983.569 549.339 984.995 543.602 984.995 539.291 983.569 536.406 980.684 536.406 977.832 537.865 974.947 539.291 973.521 542.143 972.095 550.765 969.21 553.65 967.784 555.076 966.325 556.502 963.473 556.502 959.162 553.65 956.31 549.339 954.851 543.602 954.851 539.291 956.31 536.406 959.162 M 568.65 984.961 584.402 984.961 575.813 973.487 580.124 973.487 582.976 972.062 584.402 970.636 585.861 966.325 585.861 963.473 584.402 959.162 581.55 956.277 577.239 954.851 572.928 954.851 568.65 956.277 567.224 957.736 565.765 960.588 M 525.716 1034.993 507.046 1034.993 507.046 1004.849 M 507.046 1020.634 518.52 1020.634 M 534.98 1020.634 547.88 1020.634 552.191 1022.093 553.65 1023.519 555.076 1026.371 555.076 1029.256 553.65 1032.108 552.191 1033.567 547.88 1034.993 534.98 1034.993 534.98 1004.849 M 545.028 1020.634 555.076 1004.849 M 572.961 1034.993 570.109 1033.6 567.224 1030.715 565.798 1027.83 564.339 1023.519 564.339 1016.356 565.798 1012.045 567.224 1009.193 570.109 1006.308 572.961 1004.882 578.698 1004.882 581.583 1006.308 584.435 1009.193 585.861 1012.045 587.32 1016.356 587.32 1023.519 585.861 1027.83 584.435 1030.715 581.583 1033.6 578.698 1034.993 572.961 1034.993 M 577.272 1010.619 585.861 1001.997 M 598.01 1007.734 596.584 1006.275 598.01 1004.849 599.469 1006.275 598.01 1007.734" fill="none" stroke-width="4.632"/><path d="M 845.613 1102.352 871.412 1102.352 880.034 1105.27 882.953 1108.122 885.805 1113.826 885.805 1119.596 882.953 1125.3 880.034 1128.218 871.412 1131.07 845.613 1131.07 845.613 1070.782 M 865.709 1102.352 885.805 1070.782 M 941.605 1131.07 904.332 1131.07 904.332 1070.782 941.605 1070.782 M 904.332 1102.352 927.28 1102.352 M 960.133 1131.07 960.133 1070.782 980.229 1070.782 988.851 1073.7 994.621 1079.404 997.473 1085.174 1000.325 1093.73 1000.325 1108.122 997.473 1116.744 994.621 1122.448 988.851 1128.218 980.229 1131.07 960.133 1131.07 M 826.157 916.743 823.305 922.447 817.534 928.217 811.831 931.069 800.357 931.069 794.587 928.217 788.883 922.447 785.965 916.743 783.113 908.121 783.113 893.729 785.965 885.173 788.883 879.403 794.587 873.699 800.357 870.781 811.831 870.781 817.534 873.699 823.305 879.403 826.157 885.173 826.157 893.729 811.831 893.729 M 844.684 902.351 870.483 902.351 879.105 905.269 882.024 908.121 884.876 913.825 884.876 919.595 882.024 925.299 879.105 928.217 870.483 931.069 844.684 931.069 844.684 870.781 M 864.78 902.351 884.876 870.781 M 940.676 931.069 903.403 931.069 903.403 870.781 940.676 870.781 M 903.403 902.351 926.351 902.351 M 996.477 931.069 959.204 931.069 959.204 870.781 996.477 870.781 M 959.204 902.351 982.152 902.351 M 1055.196 931.069 1055.196 870.781 1015.004 931.069 1015.004 870.781 M 814.362 731.069 814.362 670.781 840.228 670.781 848.85 673.699 851.702 676.551 854.554 682.255 854.554 690.877 851.702 696.647 848.85 699.499 840.228 702.351 848.85 705.269 851.702 708.121 854.554 713.825 854.554 719.595 851.702 725.299 848.85 728.217 840.228 731.069 814.362 731.069 M 814.362 702.351 840.228 702.351 M 873.081 731.069 873.081 670.781 907.503 670.781 M 926.03 731.069 926.03 688.025 928.882 679.403 934.652 673.699 943.274 670.781 948.978 670.781 957.6 673.699 963.37 679.403 966.222 688.025 966.222 731.069 M 1022.023 731.069 984.749 731.069 984.749 670.781 1022.023 670.781 M 984.749 702.351 1007.697 702.351" fill="none" stroke-width="9.264"/><path d="M 4203.406 477.797 4218.705 437.605 4234.003 477.797 M 4271.204 477.797 4246.355 477.797 4246.355 437.605 4271.204 437.605 M 4246.355 458.652 4261.653 458.652 M 4283.555 458.652 4300.755 458.652 4306.503 460.597 4308.449 462.498 4310.35 466.301 4310.35 470.148 4308.449 473.95 4306.503 475.896 4300.755 477.797 4283.555 477.797 4283.555 437.605 M 4296.952 458.652 4310.35 437.605 M 4349.496 472.049 4345.693 475.896 4339.945 477.797 4332.296 477.797 4326.548 475.896 4322.701 472.049 4322.701 468.247 4324.647 464.4 4326.548 462.498 4330.351 460.597 4341.847 456.75 4345.693 454.849 4347.595 452.904 4349.496 449.101 4349.496 443.353 4345.693 439.551 4339.945 437.605 4332.296 437.605 4326.548 439.551 4322.701 443.353 M 4361.847 477.797 4361.847 437.605 M 4385.695 477.797 4381.848 475.896 4378.045 472.049 4376.1 468.247 4374.199 462.498 4374.199 452.904 4376.1 447.2 4378.045 443.353 4381.848 439.551 4385.695 437.605 4393.344 437.605 4397.147 439.551 4400.993 443.353 4402.895 447.2 4404.796 452.904 4404.796 462.498 4402.895 468.247 4400.993 472.049 4397.147 475.896 4393.344 477.797 4385.695 477.797 M 4443.942 477.797 4443.942 437.605 4417.147 477.797 4417.147 437.605 M 4497.12 468.202 4497.12 470.104 4499.021 473.95 4500.922 475.852 4504.769 477.753 4512.418 477.753 4516.221 475.852 4518.122 473.95 4520.068 470.104 4520.068 466.301 4518.122 462.454 4514.319 456.75 4495.174 437.605 4521.969 437.605 M 4586.598 488.276 4573.201 488.276 4573.201 427.082 4586.598 427.082 M 4600.895 468.202 4600.895 470.104 4602.796 473.95 4604.698 475.852 4608.544 477.753 4616.194 477.753 4619.996 475.852 4621.898 473.95 4623.843 470.104 4623.843 466.301 4621.898 462.454 4618.095 456.75 4598.95 437.605 4625.744 437.605 M 4649.592 477.753 4643.844 475.852 4639.997 470.104 4638.096 460.553 4638.096 454.805 4639.997 445.254 4643.844 439.506 4649.592 437.605 4653.394 437.605 4659.142 439.506 4662.945 445.254 4664.89 454.805 4664.89 460.553 4662.945 470.104 4659.142 475.852 4653.394 477.753 4649.592 477.753 M 4662.945 470.104 4639.997 445.254 M 4679.187 468.202 4679.187 470.104 4681.089 473.95 4682.99 475.852 4686.837 477.753 4694.486 477.753 4698.288 475.852 4700.19 473.95 4702.135 470.104 4702.135 466.301 4700.19 462.454 4696.387 456.75 4677.242 437.605 4704.037 437.605 M 4727.884 477.753 4722.136 475.852 4718.289 470.104 4716.388 460.553 4716.388 454.805 4718.289 445.254 4722.136 439.506 4727.884 437.605 4731.687 437.605 4737.435 439.506 4741.237 445.254 4743.183 454.805 4743.183 460.553 4741.237 470.104 4737.435 475.852 4731.687 477.753 4727.884 477.753 M 4741.237 470.104 4718.289 445.254 M 4755.534 488.276 4768.931 488.276 4768.931 427.082 4755.534 427.082" fill="none" stroke-width="6.176"/></g><g id="HbiarsipoaJ5Uf_qgBjO_top_copper"><path d="M 5543.7 1003.739 5543.7 904.373 M 1287.448 983.121 1140.637 983.121 M 5050.826 803.035 5093.7 760.161 5093.7 633.661 M 2674.259 973.121 2054.259 973.121 M 2587.448 1033.121 3237.448 1033.121 M 5543.7 904.373 5543.7 818.716 5563.7 798.716 5643.7 798.716 5643.7 633.661 M 1049.117 448.7 744.944 448.7 537.444 656.2 456.2 656.2 M 1140.637 983.121 1140.637 540.22 1049.117 448.7 M 5093.7 1003.739 5093.7 1058.109 4496.432 1058.109 4447.452 1009.129 M 3129.259 619.83 3129.259 724.283 3109.259 744.283 3039.259 744.283 M 4781.082 653.357 4740.645 693.794 4740.645 874.283 M 508.7 563.7 508.7 606.2 456.2 606.2 M 2424.078 615.385 2424.078 689.283 M 2075.645 837.46 2075.645 744.283 M 3956.318 614.279 4001.897 568.7 4117.452 568.7 4171.082 622.33 M 1374.259 575.385 1374.259 699.279 M 4299.263 627.33 4299.263 744.283 M 3324.259 634.279 3324.259 699.279 M 4447.452 1009.129 4009.066 1009.129 3989.066 989.129 3989.066 893.125 3999.066 883.125 M 2424.078 689.283 2523.55 689.283 2567.448 645.385 M 2075.645 744.283 2035.645 744.283 1996.318 704.956 1996.318 626.432 M 556.2 1148.7 556.2 1026.2 536.2 1006.2 456.2 1006.2 M 3629.255 1058.109 3538.665 1148.7 689.235 1148.7 M 5493.7 1098.109 3753.125 1098.109 3733.123 1078.106 3733.123 949.133 3713.123 929.133 1495.637 929.133 1475.637 909.133 1475.637 734.283 M 2024.259 897.46 1844.153 897.46 1785.834 839.141 M 5079.113 833.035 5193.7 833.035 M 3329.066 744.283 3329.066 826.708 M 3674.066 814.283 3674.066 734.283 M 5019.865 978.121 4069.066 978.121 4049.066 958.121 4049.066 814.283 M 4981.318 598.7 4981.318 708.031 M 807.086 506.2 862.382 561.497 862.382 618.7 M 4921.318 754.283 4937.57 738.031 5021.318 738.031 M 548.7 936.928 529.428 956.2 456.2 956.2 M 5643.7 1003.739 5643.7 931.779 5670.511 904.968 5670.511 571.204 5643.7 571.204 5643.7 562.747 5536.893 562.747 5516.893 542.747 5516.893 448.7 5496.893 428.7 1307.141 428.7 1277.141 458.7 M 5593.7 828.72 5593.7 1003.739 M 518.7 906.2 456.2 906.2 M 5593.7 1068.109 5483.109 1178.7 606.2 1178.7 586.2 1158.7 586.2 876.2 566.2 856.2 456.2 856.2 M 5613.7 768.716 5593.7 748.716 5593.7 633.661 M 649.239 1108.109 649.239 826.2 629.239 806.2 456.2 806.2 M 5508.708 934.373 5508.708 763.96 5543.7 728.968 5543.7 633.661 M 3703.121 1003.121 1661.718 1003.121 1607.731 949.133 1232.334 949.133 1212.333 929.132 1212.333 818.7 M 4389.263 918.121 4389.263 588.7 4409.263 568.7 4813.83 568.7 4833.83 588.7 4833.83 849.133 4853.83 869.133 5468.708 869.133 5488.708 849.133 5488.708 633.661 5493.7 633.661 M 1537.333 818.7 1537.333 714.275 1517.333 694.275 1404.259 694.275 1404.259 468.7 1424.259 448.7 5423.7 448.7 5443.7 468.7 5443.7 633.661 M 1862.333 818.7 1862.333 576.436 1882.333 556.436 2213.83 556.436 2233.83 576.436 2233.83 849.133 2253.83 869.133 2359.259 869.133 2379.259 849.133 2379.259 488.7 2399.259 468.7 5373.7 468.7 5393.7 488.7 5393.7 633.661 M 5343.7 768.031 5343.7 633.661 M 4304.066 814.283 4304.066 869.133 4203.83 869.133 4183.83 849.133 4183.83 769.283 4163.83 749.283 3989.066 749.283 3969.066 769.283 3969.066 869.133 3949.066 889.133 3878.83 889.133 3858.83 869.133 3858.83 768.267 3838.83 748.267 3774.066 748.267 3754.066 768.267 3754.066 889.133 3734.066 909.133 2207.334 909.133 2187.333 889.132 2187.333 818.7 M 3734.066 659.834 3734.066 869.133 3714.066 889.133 2512.333 889.133 2512.333 818.7 M 5293.7 498.704 5293.7 633.661 M 5045.609 538.7 5035.609 528.7 3694.066 528.7 3674.066 548.7 3674.066 659.834 M 5243.7 538.7 5243.7 633.661 M 5085.609 538.7 5085.609 553.7 5070.609 568.7 4961.731 568.7 4941.731 548.7 3724.066 548.7 3704.066 568.7 3704.066 849.133 3684.066 869.133 2837.333 869.133 2837.333 818.7 M 5193.7 633.661 5193.7 508.7 5173.7 488.7 3182.334 488.7 3162.333 508.701 3162.333 818.7 M 5143.7 633.661 5143.7 528.7 5123.7 508.7 3507.334 508.7 3487.333 528.701 3487.333 818.7 M 5143.7 1003.739 5143.7 1058.109 5123.7 1078.109 3832.334 1078.109 3812.331 1058.107 3812.331 818.7 M 4137.331 818.7 4137.331 928.121 4157.331 948.121 5193.7 948.121 5193.7 1003.739 M 4462.331 818.7 4462.331 889.133 4482.331 909.133 5223.7 909.133 5243.7 929.133 5243.7 1003.739 M 5293.7 1003.739 5293.7 909.133 5273.7 889.133 4787.331 889.133 4787.331 818.7 M 1372.814 524.952 1322.569 575.197 1322.569 818.7 M 1697.814 524.952 1647.569 575.197 1647.569 818.7 M 1966.318 590.909 1966.318 745.141 1972.569 751.392 1972.569 818.7 M 2291.318 585.385 2297.569 591.636 2297.569 818.7 M 2616.318 585.385 2622.569 591.636 2622.569 818.7 M 2941.318 585.385 2947.569 591.636 2947.569 818.7 M 3266.318 585.385 3272.569 591.636 3272.569 818.7 M 3591.318 585.385 3597.569 591.636 3597.569 818.7 M 3916.318 585.385 3922.567 591.634 3922.567 818.7 M 4241.318 585.385 4247.567 591.634 4247.567 818.7 M 4566.318 598.7 4572.567 604.949 4572.567 818.7 M 4891.318 604.373 4891.318 818.7 4897.567 818.7 M 1060.003 899.133 699.239 899.133 679.239 879.133 679.239 842.48 711.794 809.924 711.794 726.2 691.794 706.2 456.2 706.2 M 3392.424 784.283 3392.424 659.834 M 3952.57 654.279 3957.574 659.283 4074.283 659.283 M 724.999 869.133 972.619 869.133 972.619 818.7 M 748.818 567.964 748.818 798.7 768.818 818.7 862.382 818.7 M 807.086 1118.7 842.381 1118.7 862.382 1098.699 862.382 1018.7 M 874.999 929.133 952.617 929.133 972.619 949.134 972.619 1018.7 M 2812.452 645.385 2954.137 503.7 3022.452 503.7 3022.452 543.7 M 1724.066 696.783 1727.814 693.035 1727.814 496.44 1707.814 476.44 1622.094 476.44 1434.259 664.275 M 2024.606 586.436 2162.452 724.281 2162.452 754.283 M 681.794 756.2 456.2 756.2 M 4359.263 588.015 4359.263 704.283 M 1030.003 759.283 1030.003 838.271 M 1727.814 496.44 1747.814 476.44 2107.621 476.44 2109.881 478.7 2349.259 478.7 M 3022.452 543.7 3022.452 587.472 3099.259 664.279 M 2349.259 478.7 2349.259 744.283 M 778.818 759.287 952.617 759.287 972.619 739.285 972.619 618.7" fill="none" stroke-width="10"/><use xlink:href="#zMeUMCejKWTY7VN2O7fw_pad-22" x="5050.826" y="803.035"/><use xlink:href="#zMeUMCejKWTY7VN2O7fw_pad-22" x="1049.117" y="448.7"/><use xlink:href="#zMeUMCejKWTY7VN2O7fw_pad-22" x="2054.259" y="973.121"/><use xlink:href="#zMeUMCejKWTY7VN2O7fw_pad-22" x="2674.259" y="973.121"/><use xlink:href="#zMeUMCejKWTY7VN2O7fw_pad-22" x="3237.448" y="1033.121"/><use xlink:href="#zMeUMCejKWTY7VN2O7fw_pad-22" x="2587.448" y="1033.121"/><use xlink:href="#zMeUMCejKWTY7VN2O7fw_pad-22" x="5543.7" y="904.373"/><use xlink:href="#zMeUMCejKWTY7VN2O7fw_pad-22" x="1287.448" y="983.121"/><use xlink:href="#zMeUMCejKWTY7VN2O7fw_pad-22" x="1140.637" y="983.121"/><use xlink:href="#zMeUMCejKWTY7VN2O7fw_pad-22" x="3999.066" y="883.125"/><use xlink:href="#zMeUMCejKWTY7VN2O7fw_pad-22" x="3039.259" y="744.283"/><use xlink:href="#zMeUMCejKWTY7VN2O7fw_pad-22" x="4740.645" y="874.283"/><use xlink:href="#zMeUMCejKWTY7VN2O7fw_pad-22" x="508.7" y="563.7"/><use xlink:href="#zMeUMCejKWTY7VN2O7fw_pad-22" x="2567.448" y="645.385"/><use xlink:href="#zMeUMCejKWTY7VN2O7fw_pad-22" x="2424.078" y="615.385"/><use xlink:href="#zMeUMCejKWTY7VN2O7fw_pad-22" x="2075.645" y="744.283"/><use xlink:href="#zMeUMCejKWTY7VN2O7fw_pad-22" x="4171.082" y="622.33"/><use xlink:href="#zMeUMCejKWTY7VN2O7fw_pad-22" x="4781.082" y="653.357"/><use xlink:href="#zMeUMCejKWTY7VN2O7fw_pad-22" x="1374.259" y="699.279"/><use xlink:href="#zMeUMCejKWTY7VN2O7fw_pad-22" x="4299.263" y="744.283"/><use xlink:href="#zMeUMCejKWTY7VN2O7fw_pad-22" x="2075.645" y="837.46"/><use xlink:href="#zMeUMCejKWTY7VN2O7fw_pad-22" x="3324.259" y="699.279"/><use xlink:href="#zMeUMCejKWTY7VN2O7fw_pad-22" x="2424.078" y="689.283"/><use xlink:href="#zMeUMCejKWTY7VN2O7fw_pad-22" x="3129.259" y="619.83"/><use xlink:href="#zMeUMCejKWTY7VN2O7fw_pad-22" x="4447.452" y="1009.129"/><use xlink:href="#zMeUMCejKWTY7VN2O7fw_pad-22" x="1996.318" y="626.432"/><use xlink:href="#zMeUMCejKWTY7VN2O7fw_pad-22" x="1374.259" y="575.385"/><use xlink:href="#zMeUMCejKWTY7VN2O7fw_pad-22" x="3956.318" y="614.279"/><use xlink:href="#zMeUMCejKWTY7VN2O7fw_pad-22" x="4299.263" y="627.33"/><use xlink:href="#zMeUMCejKWTY7VN2O7fw_pad-22" x="3324.259" y="634.279"/><use xlink:href="#zMeUMCejKWTY7VN2O7fw_pad-22" x="556.2" y="1148.7"/><use xlink:href="#zMeUMCejKWTY7VN2O7fw_pad-22" x="689.235" y="1148.7"/><use xlink:href="#zMeUMCejKWTY7VN2O7fw_pad-22" x="3629.255" y="1058.109"/><use xlink:href="#zMeUMCejKWTY7VN2O7fw_pad-22" x="1475.637" y="734.283"/><use xlink:href="#zMeUMCejKWTY7VN2O7fw_pad-22" x="5493.7" y="1098.109"/><use xlink:href="#zMeUMCejKWTY7VN2O7fw_pad-22" x="1785.834" y="839.141"/><use xlink:href="#zMeUMCejKWTY7VN2O7fw_pad-22" x="2024.259" y="897.46"/><use xlink:href="#zMeUMCejKWTY7VN2O7fw_pad-22" x="5193.7" y="833.035"/><use xlink:href="#zMeUMCejKWTY7VN2O7fw_pad-22" x="5079.113" y="833.035"/><use xlink:href="#zMeUMCejKWTY7VN2O7fw_pad-22" x="3329.066" y="826.708"/><use xlink:href="#zMeUMCejKWTY7VN2O7fw_pad-22" x="3329.066" y="744.283"/><use xlink:href="#zMeUMCejKWTY7VN2O7fw_pad-22" x="3674.066" y="734.283"/><use xlink:href="#zMeUMCejKWTY7VN2O7fw_pad-22" x="3674.066" y="814.283"/><use xlink:href="#zMeUMCejKWTY7VN2O7fw_pad-22" x="4049.066" y="814.283"/><use xlink:href="#zMeUMCejKWTY7VN2O7fw_pad-22" x="5019.865" y="978.121"/><use xlink:href="#zMeUMCejKWTY7VN2O7fw_pad-22" x="4981.318" y="708.031"/><use xlink:href="#zMeUMCejKWTY7VN2O7fw_pad-22" x="4981.318" y="598.7"/><use xlink:href="#zMeUMCejKWTY7VN2O7fw_pad-22" x="5021.318" y="738.031"/><use xlink:href="#zMeUMCejKWTY7VN2O7fw_pad-22" x="4921.318" y="754.283"/><use xlink:href="#zMeUMCejKWTY7VN2O7fw_pad-22" x="548.7" y="936.928"/><use xlink:href="#zMeUMCejKWTY7VN2O7fw_pad-22" x="1277.141" y="458.7"/><use xlink:href="#zMeUMCejKWTY7VN2O7fw_pad-22" x="5643.7" y="562.747"/><use xlink:href="#zMeUMCejKWTY7VN2O7fw_pad-22" x="5593.7" y="828.72"/><use xlink:href="#zMeUMCejKWTY7VN2O7fw_pad-22" x="518.7" y="906.2"/><use xlink:href="#zMeUMCejKWTY7VN2O7fw_pad-22" x="5613.7" y="768.716"/><use xlink:href="#zMeUMCejKWTY7VN2O7fw_pad-22" x="5593.7" y="1068.109"/><use xlink:href="#zMeUMCejKWTY7VN2O7fw_pad-22" x="649.239" y="1108.109"/><use xlink:href="#zMeUMCejKWTY7VN2O7fw_pad-22" x="5508.708" y="934.373"/><use xlink:href="#zMeUMCejKWTY7VN2O7fw_pad-22" x="3703.121" y="1003.121"/><use xlink:href="#zMeUMCejKWTY7VN2O7fw_pad-22" x="4389.263" y="918.121"/><use xlink:href="#zMeUMCejKWTY7VN2O7fw_pad-22" x="5343.7" y="768.031"/><use xlink:href="#zMeUMCejKWTY7VN2O7fw_pad-22" x="4304.066" y="814.283"/><use xlink:href="#zMeUMCejKWTY7VN2O7fw_pad-22" x="3734.066" y="659.834"/><use xlink:href="#zMeUMCejKWTY7VN2O7fw_pad-22" x="3674.066" y="659.834"/><use xlink:href="#zMeUMCejKWTY7VN2O7fw_pad-22" x="5045.609" y="538.7"/><use xlink:href="#zMeUMCejKWTY7VN2O7fw_pad-22" x="5293.7" y="498.704"/><use xlink:href="#zMeUMCejKWTY7VN2O7fw_pad-22" x="5243.7" y="538.7"/><use xlink:href="#zMeUMCejKWTY7VN2O7fw_pad-22" x="5085.609" y="538.7"/><use xlink:href="#zMeUMCejKWTY7VN2O7fw_pad-22" x="1372.814" y="524.952"/><use xlink:href="#zMeUMCejKWTY7VN2O7fw_pad-22" x="1697.814" y="524.952"/><use xlink:href="#zMeUMCejKWTY7VN2O7fw_pad-22" x="1966.318" y="590.909"/><use xlink:href="#zMeUMCejKWTY7VN2O7fw_pad-22" x="2291.318" y="585.385"/><use xlink:href="#zMeUMCejKWTY7VN2O7fw_pad-22" x="2616.318" y="585.385"/><use xlink:href="#zMeUMCejKWTY7VN2O7fw_pad-22" x="2941.318" y="585.385"/><use xlink:href="#zMeUMCejKWTY7VN2O7fw_pad-22" x="3266.318" y="585.385"/><use xlink:href="#zMeUMCejKWTY7VN2O7fw_pad-22" x="3591.318" y="585.385"/><use xlink:href="#zMeUMCejKWTY7VN2O7fw_pad-22" x="3916.318" y="585.385"/><use xlink:href="#zMeUMCejKWTY7VN2O7fw_pad-22" x="4241.318" y="585.385"/><use xlink:href="#zMeUMCejKWTY7VN2O7fw_pad-22" x="4566.318" y="598.7"/><use xlink:href="#zMeUMCejKWTY7VN2O7fw_pad-22" x="4891.318" y="604.373"/><use xlink:href="#zMeUMCejKWTY7VN2O7fw_pad-22" x="807.086" y="506.2"/><use xlink:href="#zMeUMCejKWTY7VN2O7fw_pad-22" x="1060.003" y="899.133"/><use xlink:href="#zMeUMCejKWTY7VN2O7fw_pad-22" x="4074.283" y="659.283"/><use xlink:href="#zMeUMCejKWTY7VN2O7fw_pad-22" x="3952.57" y="654.279"/><use xlink:href="#zMeUMCejKWTY7VN2O7fw_pad-22" x="3392.424" y="659.834"/><use xlink:href="#zMeUMCejKWTY7VN2O7fw_pad-22" x="3392.424" y="784.283"/><use xlink:href="#zMeUMCejKWTY7VN2O7fw_pad-22" x="1434.259" y="664.275"/><use xlink:href="#zMeUMCejKWTY7VN2O7fw_pad-22" x="3022.452" y="543.7"/><use xlink:href="#zMeUMCejKWTY7VN2O7fw_pad-22" x="2812.452" y="645.385"/><use xlink:href="#zMeUMCejKWTY7VN2O7fw_pad-22" x="2349.259" y="744.283"/><use xlink:href="#zMeUMCejKWTY7VN2O7fw_pad-22" x="2162.452" y="754.283"/><use xlink:href="#zMeUMCejKWTY7VN2O7fw_pad-22" x="2024.606" y="586.436"/><use xlink:href="#zMeUMCejKWTY7VN2O7fw_pad-22" x="1724.066" y="696.783"/><use xlink:href="#zMeUMCejKWTY7VN2O7fw_pad-22" x="681.794" y="756.2"/><use xlink:href="#zMeUMCejKWTY7VN2O7fw_pad-22" x="4359.263" y="704.283"/><use xlink:href="#zMeUMCejKWTY7VN2O7fw_pad-22" x="4359.263" y="588.015"/><use xlink:href="#zMeUMCejKWTY7VN2O7fw_pad-22" x="1030.003" y="838.271"/><use xlink:href="#zMeUMCejKWTY7VN2O7fw_pad-22" x="3099.259" y="664.279"/><use xlink:href="#zMeUMCejKWTY7VN2O7fw_pad-22" x="2349.259" y="478.7"/><use xlink:href="#zMeUMCejKWTY7VN2O7fw_pad-22" x="1030.003" y="759.283"/><use xlink:href="#zMeUMCejKWTY7VN2O7fw_pad-22" x="748.818" y="567.964"/><use xlink:href="#zMeUMCejKWTY7VN2O7fw_pad-22" x="807.086" y="1118.7"/><use xlink:href="#zMeUMCejKWTY7VN2O7fw_pad-22" x="874.999" y="929.133"/><use xlink:href="#zMeUMCejKWTY7VN2O7fw_pad-22" x="724.999" y="869.133"/><use xlink:href="#zMeUMCejKWTY7VN2O7fw_pad-22" x="778.818" y="759.287"/><path d="M 5527.716 1180.331 5553.666 1180.331 M 3603.014 1130.594 5466.288 1130.594 M 513.619 1105.725 522.775 1105.725 M 692.608 1105.725 765.764 1105.725 M 895.014 1105.725 3535.396 1105.725 M 3627.881 1105.725 3714.494 1105.725 M 434.7 1080.856 522.775 1080.856 M 682.669 1080.856 788.981 1080.856 M 895.821 1080.856 3560.263 1080.856 M 3665.793 1080.856 3699.817 1080.856 M 5635.099 1080.856 5665.193 1080.856 M 434.7 1055.987 522.775 1055.987 M 682.669 1055.987 802.456 1055.987 M 1032.54 1055.987 3585.13 1055.987 M 3672.629 1055.987 3699.691 1055.987 M 3766.556 1055.987 3778.906 1055.987 M 5533.941 1055.987 5552.104 1055.987 M 682.669 1031.119 802.456 1031.119 M 1032.54 1031.119 1646.057 1031.119 M 3766.556 1031.119 3778.906 1031.119 M 3845.77 1031.119 3984.809 1031.119 M 5533.941 1031.119 5553.451 1031.119 M 682.669 1006.25 802.456 1006.25 M 1032.54 1006.25 1618.606 1006.25 M 3766.556 1006.25 3778.906 1006.25 M 3845.77 1006.25 3960.802 1006.25 M 5533.941 1006.25 5553.451 1006.25 M 682.669 981.381 802.456 981.381 M 1032.54 981.381 1593.738 981.381 M 3766.556 981.381 3778.906 981.381 M 3845.77 981.381 3955.636 981.381 M 5533.941 981.381 5553.451 981.381 M 682.669 956.512 842.073 956.512 M 1006.057 956.512 1193.468 956.512 M 3766.556 956.512 3778.906 956.512 M 3845.77 956.512 3955.636 956.512 M 5545.64 956.512 5553.451 956.512 M 682.669 931.644 831.648 931.644 M 1000.638 931.644 1032.636 931.644 M 1087.371 931.644 1179.007 931.644 M 3761.137 931.644 3778.906 931.644 M 3845.77 931.644 3955.636 931.644 M 4082.498 931.644 4104.106 931.644 M 5327.141 931.644 5465.373 931.644 M 5552.045 931.644 5560.268 931.644 M 1102.71 906.775 1178.899 906.775 M 1245.763 906.775 1442.199 906.775 M 4082.498 906.775 4103.89 906.775 M 4170.773 906.775 4347.436 906.775 M 5327.052 906.775 5475.276 906.775 M 5542.141 906.775 5560.268 906.775 M 1099.644 881.906 1178.899 881.906 M 1245.763 881.906 1442.199 881.906 M 1509.064 881.906 1782.346 881.906 M 2064.623 881.906 2153.89 881.906 M 4082.498 881.906 4103.89 881.906 M 4334.746 881.906 4355.834 881.906 M 5542.141 881.906 5560.268 881.906 M 5627.133 881.906 5637.078 881.906 M 1068.872 857.037 1152.398 857.037 M 1382.501 857.037 1442.199 857.037 M 1707.503 857.037 1746.515 857.037 M 2114.088 857.037 2127.407 857.037 M 2411.658 857.037 2452.411 857.037 M 2682.494 857.037 2777.396 857.037 M 4337.491 857.037 4355.834 857.037 M 4632.495 857.037 4701.022 857.037 M 5542.141 857.037 5560.268 857.037 M 5627.133 857.037 5637.078 857.037 M 1072.981 832.169 1152.398 832.169 M 1382.501 832.169 1442.199 832.169 M 1707.503 832.169 1742.998 832.169 M 2118.735 832.169 2127.407 832.169 M 2412.699 832.169 2452.411 832.169 M 2682.494 832.169 2777.396 832.169 M 3007.498 832.169 3102.399 832.169 M 3372.134 832.169 3427.402 832.169 M 4343.394 832.169 4355.834 832.169 M 4632.495 832.169 4707.212 832.169 M 4957.498 832.169 5035.696 832.169 M 5237.125 832.169 5455.271 832.169 M 5542.141 832.169 5550.418 832.169 M 1063.436 807.3 1152.398 807.3 M 1382.501 807.3 1442.199 807.3 M 1707.503 807.3 1757.603 807.3 M 2032.506 807.3 2042.218 807.3 M 2109.083 807.3 2127.407 807.3 M 2412.699 807.3 2452.411 807.3 M 2682.494 807.3 2777.396 807.3 M 3007.498 807.3 3102.399 807.3 M 4346.893 807.3 4355.834 807.3 M 4632.495 807.3 4707.212 807.3 M 4957.498 807.3 5044.775 807.3 M 5228.029 807.3 5329.641 807.3 M 5357.75 807.3 5455.271 807.3 M 5542.141 807.3 5556.321 807.3 M 1066.271 782.431 1152.398 782.431 M 1382.501 782.431 1442.199 782.431 M 1707.503 782.431 1802.405 782.431 M 2032.506 782.431 2042.218 782.431 M 2109.083 782.431 2127.407 782.431 M 2412.699 782.431 2452.411 782.431 M 2682.494 782.431 2777.396 782.431 M 3007.498 782.431 3021.911 782.431 M 3056.606 782.431 3102.399 782.431 M 4002.494 782.431 4020.855 782.431 M 4332.27 782.431 4355.834 782.431 M 4632.495 782.431 4707.212 782.431 M 4957.498 782.431 5302.889 782.431 M 5384.52 782.431 5455.271 782.431 M 5542.141 782.431 5572.63 782.431 M 1073.394 757.562 1152.398 757.562 M 1382.501 757.562 1439.472 757.562 M 1707.503 757.562 1802.405 757.562 M 2412.699 757.562 2452.411 757.562 M 2682.494 757.562 2777.396 757.562 M 4340.487 757.562 4355.834 757.562 M 4632.495 757.562 4707.212 757.562 M 5059.785 757.562 5301.633 757.562 M 5385.776 757.562 5455.271 757.562 M 1063.633 732.693 1289.136 732.693 M 1400.406 732.693 1432.242 732.693 M 1570.767 732.693 1614.138 732.693 M 1681.003 732.693 1701.911 732.693 M 1746.204 732.693 1828.905 732.693 M 1895.77 732.693 1932.88 732.693 M 2412.699 732.693 2589.129 732.693 M 2655.994 732.693 2914.133 732.693 M 2980.997 732.693 2997.51 732.693 M 3195.764 732.693 3239.136 732.693 M 3425.854 732.693 3453.902 732.693 M 3520.767 732.693 3564.138 732.693 M 3869.507 732.693 3889.142 732.693 M 4193.487 732.693 4214.127 732.693 M 4422.697 732.693 4539.13 732.693 M 4605.994 732.693 4707.212 732.693 M 4774.075 732.693 4800.403 732.693 M 5064.397 732.693 5310.263 732.693 M 5377.128 732.693 5455.271 732.693 M 782.247 707.825 939.192 707.825 M 1006.057 707.825 1289.136 707.825 M 1570.085 707.825 1614.138 707.825 M 1765.977 707.825 1828.905 707.825 M 1895.77 707.825 1932.88 707.825 M 2045.424 707.825 2054.527 707.825 M 2191.15 707.825 2200.397 707.825 M 2551.249 707.825 2589.129 707.825 M 2655.994 707.825 2914.133 707.825 M 2980.997 707.825 3018.144 707.825 M 3060.373 707.825 3095.833 707.825 M 3195.764 707.825 3239.136 707.825 M 3425.854 707.825 3453.902 707.825 M 3520.767 707.825 3564.138 707.825 M 3631.003 707.825 3640.339 707.825 M 3767.507 707.825 3889.142 707.825 M 3956.006 707.825 4214.127 707.825 M 4422.697 707.825 4539.13 707.825 M 4605.994 707.825 4707.212 707.825 M 4774.075 707.825 4800.403 707.825 M 5051.443 707.825 5310.263 707.825 M 5377.128 707.825 5455.271 707.825 M 5627.133 707.825 5637.078 707.825 M 782.247 682.956 939.192 682.956 M 1006.057 682.956 1289.136 682.956 M 1552.268 682.956 1614.138 682.956 M 1765.098 682.956 1828.905 682.956 M 1895.77 682.956 1932.88 682.956 M 2029.743 682.956 2074.873 682.956 M 2167.377 682.956 2200.397 682.956 M 2655.994 682.956 2793.705 682.956 M 2831.199 682.956 2914.133 682.956 M 2980.997 682.956 3060.343 682.956 M 3195.764 682.956 3239.136 682.956 M 3428.707 682.956 3453.902 682.956 M 3520.767 682.956 3564.138 682.956 M 3770.342 682.956 3889.142 682.956 M 4110.183 682.956 4214.127 682.956 M 4422.697 682.956 4539.13 682.956 M 4605.994 682.956 4709.167 682.956 M 4924.754 682.956 4946.469 682.956 M 5016.169 682.956 5103.462 682.956 M 434.7 658.087 715.382 658.087 M 782.247 658.087 802.456 658.087 M 1032.54 658.087 1289.136 658.087 M 1486.69 658.087 1614.138 658.087 M 1681.003 658.087 1694.376 658.087 M 1761.239 658.087 1828.905 658.087 M 1895.77 658.087 1932.88 658.087 M 2029.743 658.087 2050.006 658.087 M 2142.51 658.087 2200.397 658.087 M 2457.519 658.087 2508.498 658.087 M 2655.994 658.087 2771.044 658.087 M 2853.859 658.087 2914.133 658.087 M 2980.997 658.087 3046.814 658.087 M 3195.764 658.087 3239.136 658.087 M 3435.812 658.087 3453.902 658.087 M 3520.767 658.087 3564.138 658.087 M 3777.465 658.087 3889.142 658.087 M 4117.7 658.087 4148.657 658.087 M 4193.506 658.087 4214.127 658.087 M 4422.697 658.087 4539.13 658.087 M 4605.994 658.087 4730.106 658.087 M 4924.754 658.087 4947.886 658.087 M 5014.751 658.087 5103.462 658.087 M 526.267 633.218 715.382 633.218 M 782.247 633.218 802.456 633.218 M 1032.54 633.218 1289.136 633.218 M 1511.557 633.218 1614.138 633.218 M 1681.003 633.218 1694.376 633.218 M 1761.239 633.218 1828.905 633.218 M 1895.77 633.218 1932.88 633.218 M 2117.641 633.218 2200.397 633.218 M 2463.422 633.218 2525.865 633.218 M 2655.994 633.218 2770.865 633.218 M 2870.868 633.218 2914.133 633.218 M 2980.997 633.218 3021.947 633.218 M 3195.764 633.218 3239.136 633.218 M 3426.015 633.218 3453.902 633.218 M 3520.767 633.218 3564.138 633.218 M 3631.003 633.218 3640.465 633.218 M 3767.669 633.218 3889.142 633.218 M 4108.352 633.218 4129.117 633.218 M 4422.697 633.218 4539.13 633.218 M 4605.994 633.218 4742.952 633.218 M 4924.754 633.218 4947.886 633.218 M 5014.751 633.218 5103.462 633.218 M 542.057 608.35 715.382 608.35 M 782.247 608.35 802.456 608.35 M 1032.54 608.35 1289.136 608.35 M 1536.426 608.35 1614.138 608.35 M 1681.003 608.35 1694.376 608.35 M 1761.239 608.35 1828.905 608.35 M 1895.77 608.35 1926.779 608.35 M 2092.773 608.35 2200.397 608.35 M 2466.902 608.35 2547.522 608.35 M 2655.994 608.35 2792.522 608.35 M 2895.737 608.35 2904.928 608.35 M 2980.997 608.35 2997.133 608.35 M 3195.764 608.35 3229.931 608.35 M 3358.427 608.35 3453.902 608.35 M 3520.767 608.35 3554.935 608.35 M 3631.003 608.35 3640.627 608.35 M 3737.507 608.35 3879.938 608.35 M 4008.487 608.35 4110.852 608.35 M 4422.697 608.35 4524.041 608.35 M 4608.596 608.35 4800.403 608.35 M 5023.596 608.35 5103.462 608.35 M 547.044 583.481 708.439 583.481 M 789.191 583.481 802.456 583.481 M 1032.54 583.481 1289.136 583.481 M 1437.69 583.481 1468.808 583.481 M 1561.293 583.481 1614.138 583.481 M 1685.524 583.481 1694.376 583.481 M 1761.239 583.481 1828.905 583.481 M 2452.225 583.481 2572.928 583.481 M 2659.708 583.481 2828.119 583.481 M 3064.714 583.481 3107.943 583.481 M 3195.764 583.481 3222.934 583.481 M 3309.714 583.481 3453.902 583.481 M 3520.767 583.481 3547.938 583.481 M 3737.507 583.481 3872.922 583.481 M 4186.473 583.481 4197.926 583.481 M 434.7 558.612 465.575 558.612 M 551.817 558.612 706.466 558.612 M 791.165 558.612 802.456 558.612 M 1032.54 558.612 1293.961 558.612 M 1437.69 558.612 1493.675 558.612 M 1586.161 558.612 1618.965 558.612 M 1761.239 558.612 1834.557 558.612 M 2412.699 558.612 2582.85 558.612 M 2649.787 558.612 2852.986 558.612 M 3063.064 558.612 3128.899 558.612 M 3195.764 558.612 3232.856 558.612 M 3299.775 558.612 3453.902 558.612 M 3520.767 558.612 3557.859 558.612 M 3624.777 558.612 3640.627 558.612 M 5327.141 558.612 5360.268 558.612 M 5477.137 558.612 5487.836 558.612 M 539.096 533.743 723.852 533.743 M 880.875 533.743 1317.771 533.743 M 1437.69 533.743 1518.543 533.743 M 1611.028 533.743 1642.773 533.743 M 1761.239 533.743 1858.814 533.743 M 2237.351 533.743 2315.818 533.743 M 2412.699 533.743 2877.854 533.743 M 3064.661 533.743 3128.899 533.743 M 3195.764 533.743 3453.902 533.743 M 5327.141 533.743 5360.268 533.743 M 535.633 508.875 763.737 508.875 M 856.007 508.875 1332.663 508.875 M 1437.69 508.875 1543.41 508.875 M 1635.914 508.875 1657.666 508.875 M 1761.634 508.875 2100.566 508.875 M 2412.699 508.875 2902.721 508.875 M 3055.888 508.875 3128.899 508.875 M 5335.843 508.875 5360.268 508.875 M 5550.322 508.875 5564.27 508.875 M 545.573 484.006 770.196 484.006 M 843.986 484.006 1242.468 484.006 M 1311.808 484.006 1370.826 484.006 M 1437.69 484.006 1568.279 484.006 M 546.524 459.137 1233.712 459.137 M 538.881 434.268 1241.804 434.268 M 5546.752 434.268 5561.022 434.268 M 5355.957 568.357 5324.63 568.357 5324.633 525.512 5328.842 519.695 5332.632 511.348 5334.469 502.368 5334.592 499.63 5360.892 499.633 5362.767 501.514 5362.767 568.354 5355.956 568.367 M 5498.763 568.357 5474.63 568.357 5474.633 468.7 5473.276 459.64 5484.088 459.633 5485.96 461.514 5485.96 542.747 5487.314 551.798 5491.263 560.065 M 5624.629 698.964 5631.444 698.964 5631.444 601.798 5634.592 602.654 5639.582 603.216 5639.578 736.993 5639.221 736.712 5631.46 731.836 5624.641 729.451 5624.633 698.97 M 5634.619 1069.043 5667.704 1069.043 5667.7 1102.108 5666.478 1101.459 5658.116 1097.697 5649.361 1094.97 5640.342 1093.319 5631.188 1092.767 5626.138 1093.073 5628.84 1089.1 5632.63 1080.755 5634.469 1071.775 5634.592 1069.941 5634.612 1069.041 M 5477.775 898.712 5477.773 907.783 5476.704 908.852 5471.827 916.613 5468.801 925.266 5467.775 934.375 5468.233 938.439 5324.636 938.436 5324.633 909.154 5324.028 903.046 5323.275 900.066 5469.322 900.06 5477.775 898.712 M 5055.956 997.439 5055.956 1027.169 4882.55 1027.175 4509.238 1027.175 4491.129 1009.06 4757.998 1009.054 4993.049 1009.054 4994.344 1010.125 5002.106 1015.001 5010.758 1018.028 5019.865 1019.054 5028.974 1018.028 5037.627 1015.001 5045.388 1010.124 5051.868 1003.642 5055.96 997.13 M 1243.259 880.066 1379.998 880.066 1379.998 757.334 1353.507 757.334 1353.502 734.566 1358.172 736.919 1366.952 739.554 1376.098 740.171 1385.15 738.737 1393.658 735.323 1401.192 730.103 1405.667 725.208 1435.724 725.208 1434.704 734.287 1435.73 743.396 1438.759 752.046 1443.637 759.808 1444.707 760.877 1444.704 909.133 1446.061 918.193 1314.016 918.2 1245.145 918.2 1243.267 916.319 1243.266 880.07 M 2029.998 856.93 2029.998 774.701 2040.645 775.216 2044.712 775.216 2044.712 810.648 2043.641 811.939 2038.764 819.7 2035.738 828.352 2034.712 837.461 2035.738 846.57 2038.766 855.221 2042.18 860.655 2033.367 857.553 2029.995 857.172 M 2139.09 880.066 2156.394 880.066 2156.399 889.132 2157.756 898.192 2065.191 898.2 2065.192 897.46 2064.166 888.351 2061.138 879.699 2057.724 874.264 2066.537 877.367 2075.646 878.393 2084.754 877.367 2093.406 874.339 2101.167 869.462 2107.649 862.981 2112.525 855.22 2115.552 846.567 2116.578 837.46 2115.552 828.351 2112.524 819.699 2107.648 811.938 2106.578 810.868 2106.578 771.095 2107.649 769.804 2112.525 762.043 2115.552 753.39 2116.578 744.283 2115.552 735.174 2112.524 726.522 2107.648 718.76 2101.166 712.28 2093.405 707.403 2084.752 704.376 2075.644 703.35 2066.536 704.376 2057.884 707.403 2050.123 712.28 2049.053 713.351 2048.457 713.35 2027.246 692.137 2027.251 653.245 2031.46 647.422 2034.705 640.275 2127.464 733.04 2125.571 736.524 2122.545 745.175 2121.519 754.284 2122.545 763.393 2125.573 772.044 2129.902 778.934 2129.903 880.066 2139.09 880.066 M 2266.641 757.334 2264.763 757.334 2264.763 616.529 2265.797 617.389 2266.638 617.917 2266.636 757.335 M 2679.998 858.204 2679.998 757.334 2653.507 757.334 2653.502 602.494 2656.225 594.493 2657.251 585.385 2656.225 576.276 2653.197 567.624 2648.321 559.863 2641.839 553.381 2634.078 548.504 2625.426 545.478 2616.317 544.452 2607.209 545.478 2598.557 548.506 2590.796 553.382 2584.314 559.864 2579.438 567.625 2576.411 576.277 2575.385 585.386 2576.411 594.494 2579.439 603.146 2581.92 607.095 2576.556 605.478 2567.447 604.452 2558.339 605.478 2549.687 608.506 2541.926 613.382 2535.444 619.864 2530.567 627.625 2527.541 636.277 2526.872 642.21 2510.737 658.351 2455.02 658.35 2455.011 642.197 2456.082 640.906 2460.959 633.145 2463.985 624.493 2465.011 615.385 2463.985 606.276 2460.957 597.624 2456.081 589.863 2449.599 583.381 2441.838 578.504 2433.186 575.478 2424.077 574.452 2414.969 575.478 2410.195 577.149 2410.192 501.51 2412.071 499.633 2914.451 499.633 2809.541 604.549 2803.343 605.478 2794.691 608.506 2786.93 613.382 2780.448 619.864 2775.571 627.625 2772.545 636.277 2771.519 645.386 2772.545 654.494 2775.573 663.146 2780.449 670.907 2786.931 677.389 2794.692 682.266 2803.344 685.292 2812.453 686.318 2821.561 685.292 2830.213 682.264 2837.974 677.388 2844.456 670.906 2849.333 663.145 2852.359 654.493 2853.028 648.56 2902.684 598.899 2904.439 603.146 2909.315 610.907 2915.797 617.389 2916.638 617.917 2916.636 757.335 2890.14 757.342 2821.271 757.334 2779.903 757.334 2779.903 858.195 2679.993 858.2 M 3004.998 838.199 3004.998 766.682 3007.256 769.805 3013.738 776.287 3021.499 781.163 3030.151 784.191 3039.26 785.216 3048.368 784.19 3057.02 781.162 3064.781 776.285 3065.851 775.216 3104.906 775.216 3104.903 838.208 3005.003 838.2 M 3215.142 757.334 3193.271 757.334 3193.266 521.514 3195.146 519.634 3457.756 519.633 3456.443 527.06 3456.399 528.701 3456.399 757.33 3429.903 757.334 3429.903 767.821 3429.304 766.522 3424.427 758.76 3423.356 757.691 3423.357 686.644 3424.427 685.355 3429.304 677.594 3432.331 668.941 3433.357 659.834 3432.331 650.725 3429.304 642.073 3424.427 634.312 3417.945 627.83 3410.183 622.953 3401.532 619.927 3392.423 618.901 3383.314 619.927 3374.663 622.955 3366.902 627.831 3364.945 629.788 3364.166 625.17 3361.138 616.518 3356.262 608.756 3349.78 602.275 3342.019 597.399 3333.367 594.372 3324.258 593.346 3315.15 594.372 3306.498 597.399 3305.187 598.224 3306.881 590.876 3307.251 585.385 3306.225 576.276 3303.197 567.624 3298.321 559.863 3291.839 553.381 3284.078 548.504 3275.426 545.478 3266.317 544.452 3257.209 545.478 3248.557 548.506 3240.796 553.382 3234.314 559.864 3229.438 567.625 3226.411 576.277 3225.385 585.386 3226.411 594.494 3229.439 603.146 3234.315 610.907 3240.797 617.389 3241.638 617.917 3241.636 757.335 3215.14 757.342 M 3540.142 757.334 3518.271 757.334 3518.266 541.52 3520.146 539.634 3644.49 539.633 3643.176 547.058 3643.133 548.7 3643.133 633.022 3642.062 634.313 3637.186 642.074 3634.159 650.726 3633.133 659.835 3634.159 668.943 3637.187 677.595 3642.064 685.356 3648.545 691.838 3656.306 696.714 3657.144 697.007 3650.003 701.17 3643.238 707.354 3638.019 714.889 3634.607 723.397 3633.174 732.451 3633.791 741.595 3636.428 750.375 3640.373 757.326 3628.507 757.334 3628.502 602.494 3631.225 594.493 3632.251 585.385 3631.225 576.276 3628.197 567.624 3623.321 559.863 3616.839 553.381 3609.078 548.504 3600.426 545.478 3591.317 544.452 3582.209 545.478 3573.557 548.506 3565.796 553.382 3559.314 559.864 3554.438 567.625 3551.411 576.277 3550.385 585.386 3551.411 594.494 3554.439 603.146 3559.315 610.907 3565.797 617.389 3566.638 617.917 3566.636 757.335 3540.14 757.342 M 3429.903 800.745 3429.903 838.208 3368.348 838.2 3369.835 830.375 3369.999 826.708 3369.002 817.856 3376.342 821.924 3385.121 824.56 3394.267 825.175 3403.321 823.739 3411.827 820.326 3419.36 815.104 3425.544 808.338 3429.902 800.653 M 4197.953 899.502 4189.315 896.449 4181.957 891.006 4171.019 880.066 4168.264 880.06 4168.264 915.308 4170.136 917.188 4348.435 917.188 4349.356 909.014 4352.382 900.361 4357.259 892.6 4358.33 891.321 4358.33 745.111 4350.155 744.191 4341.503 741.163 4339.745 740.271 4340.196 744.283 4339.171 753.388 4336.145 762.04 4331.268 769.801 4324.788 776.284 4322.491 777.726 4322.621 777.903 4329.587 782.28 4336.069 788.76 4340.945 796.522 4343.973 805.174 4344.999 814.283 4344.835 817.948 4342.997 826.928 4339.208 835.273 4334.994 840.808 4334.999 869.107 4334.885 871.788 4332.759 880.691 4328.121 888.581 4321.377 894.768 4313.117 898.712 4304.046 900.066 4203.855 900.066 4197.953 899.502 M 4515.141 757.334 4420.191 757.334 4420.196 601.506 4422.075 599.633 4525.402 599.633 4525.756 604.2 4527.997 613.088 4532.159 621.254 4538.035 628.291 4541.632 631.028 4541.634 757.33 4515.138 757.343 M 4718.785 671.907 4740.506 650.183 4741.175 644.25 4744.201 635.598 4749.078 627.836 4755.56 621.355 4763.321 616.478 4771.973 613.451 4781.081 612.423 4790.19 613.449 4798.842 616.477 4802.897 618.716 4802.897 601.514 4801.01 599.633 4607.209 599.634 4607.087 602.364 4605.25 611.344 4603.501 615.813 4603.506 757.334 4629.997 757.334 4629.989 878.2 4700.14 878.191 4699.752 872.448 4701.187 863.394 4704.599 854.888 4709.712 847.477 4709.712 693.794 4710.167 688.503 4713.049 679.817 4718.355 672.348 4718.785 671.907 M 4802.893 757.334 4771.583 757.334 4771.578 706.606 4783.994 694.192 4790.191 693.264 4798.843 690.237 4802.898 687.688 4802.897 757.336 M 820.608 1080.066 831.444 1080.066 831.449 1085.81 824.846 1081.819 823.172 1081.06 821.468 1080.376 820.582 1080.066 M 467.772 562.767 436.2 562.767 432.201 563.191 432.2 535.292 433.422 535.941 441.784 539.703 450.539 542.43 459.558 544.081 468.712 544.633 472.599 544.398 471.819 545.94 468.793 554.592 467.872 562.767 M 432.195 1049.633 519.633 1049.633 519.633 1037.137 523.389 1037.133 525.267 1039.014 525.267 1118.049 519.045 1111.856 511.826 1106.201 503.978 1101.459 495.616 1097.697 486.861 1094.97 477.842 1093.319 468.688 1092.767 459.536 1093.322 450.518 1094.976 441.763 1097.705 433.402 1101.469 432.199 1102.197 432.2 1049.638 M 1661.746 1034.054 3596.333 1034.05 3592.375 1040.35 3589.348 1049.002 3588.679 1054.935 3525.848 1117.77 886.737 1117.767 889.978 1112.676 892.86 1103.989 893.315 1098.699 893.309 1080.066 1030.048 1080.066 1030.048 957.334 1003.557 957.334 1003.552 949.134 1002.199 940.083 998.249 931.817 1002.221 930.066 1033.199 930.066 1034.482 931.137 1042.243 936.014 1050.896 939.04 1060.004 940.066 1069.112 939.04 1077.764 936.012 1085.525 931.136 1092.007 924.654 1096.882 916.893 1099.91 908.241 1100.936 899.133 1099.91 890.024 1096.882 881.372 1092.006 873.611 1085.524 867.129 1077.763 862.252 1069.111 859.226 1065.419 858.81 1068.934 850.917 1070.772 841.938 1070.936 838.271 1069.91 829.162 1066.882 820.51 1062.006 812.749 1060.936 811.679 1060.936 786.082 1065.144 780.276 1068.934 771.931 1070.772 762.951 1070.936 759.283 1069.91 750.174 1066.882 741.522 1062.006 733.76 1055.524 727.28 1047.763 722.403 1039.111 719.376 1030.002 718.35 1020.893 719.376 1012.242 722.403 1004.481 727.28 1003.55 728.21 1003.552 680.066 1030.048 680.066 1030.048 557.334 893.033 557.334 891.961 552.444 888.012 544.179 884.239 539.607 847.662 503.024 846.993 497.091 843.965 488.439 839.088 480.678 832.607 474.196 824.846 469.319 816.193 466.293 807.085 465.267 797.977 466.293 789.325 469.321 781.564 474.197 775.082 480.679 770.207 488.44 767.179 497.092 766.153 506.201 767.179 515.309 770.207 523.961 775.083 531.722 781.565 538.204 789.326 543.081 797.978 546.107 803.911 546.776 814.465 557.334 804.953 557.334 804.953 680.066 941.682 680.066 941.686 726.47 939.805 728.352 805.62 728.354 804.339 727.284 796.578 722.407 787.926 719.38 779.751 718.459 779.751 594.768 780.822 593.485 785.699 585.724 788.725 577.071 789.751 567.964 788.725 558.855 785.697 550.203 780.821 542.441 774.339 535.96 766.578 531.085 757.926 528.057 748.817 527.031 739.709 528.057 731.057 531.085 723.296 535.961 716.814 542.443 711.938 550.204 708.911 558.856 707.885 567.965 708.911 577.074 711.939 585.725 716.815 593.486 717.885 594.556 717.885 688.537 713.234 683.902 705.771 678.604 697.085 675.722 691.794 675.267 519.633 675.272 519.633 662.767 432.192 662.767 432.201 649.271 436.2 649.633 476.2 649.633 485.318 648.666 494.029 645.805 501.947 641.179 506.369 637.14 508.7 637.133 517.752 635.779 526.011 631.835 532.755 625.648 537.393 617.758 539.519 608.846 539.633 599.116 539.633 590.514 540.704 589.221 545.581 581.46 548.607 572.808 549.633 563.7 548.607 554.591 545.579 545.939 540.703 538.178 534.221 531.696 526.46 526.819 520.098 524.594 525.544 519.045 531.199 511.826 535.941 503.978 539.703 495.616 542.43 486.861 544.081 477.842 544.633 468.7 544.078 459.536 542.424 450.518 539.695 441.763 535.931 433.402 535.203 432.199 1245.939 432.2 1245.137 433.179 1240.26 440.94 1237.234 449.592 1236.208 458.701 1237.234 467.809 1240.262 476.461 1245.138 484.222 1251.62 490.704 1259.381 495.581 1268.033 498.607 1277.142 499.633 1286.25 498.607 1294.902 495.579 1302.663 490.703 1309.145 484.221 1314.022 476.46 1317.048 467.808 1317.717 461.876 1319.952 459.636 1374.686 459.633 1373.89 462.822 1373.326 468.725 1373.321 484.075 1372.813 484.019 1363.704 485.045 1355.053 488.073 1347.292 492.949 1340.81 499.431 1335.934 507.192 1332.907 515.844 1332.238 521.777 1300.272 553.756 1294.973 561.22 1292.091 569.906 1291.636 575.197 1291.642 757.334 1154.903 757.334 1154.903 880.066 1181.394 880.066 1181.399 929.132 1182.752 938.183 1186.703 946.449 1190.474 951.019 1210.461 971.006 1217.819 976.449 1226.457 979.502 1232.36 980.066 1594.922 980.07 1639.846 1024.994 1647.204 1030.438 1655.842 1033.49 1661.746 1034.054 M 584.334 1200.578 570.54 1186.776 565.309 1188.607 556.201 1189.633 547.092 1188.607 542.321 1187.212 539.703 1195.616 535.941 1203.978 535.204 1205.196 590.238 1205.2 584.334 1200.578 M 5500.427 1204.33 5499.069 1205.2 5564.697 1205.201 5563.969 1203.998 5560.205 1195.637 5557.476 1186.882 5555.822 1177.864 5555.267 1168.712 5555.819 1159.558 5557.47 1150.539 5558.581 1146.974 5505.001 1200.556 5500.427 1204.33 M 4018.137 847.069 4016.826 846.245 4008.174 843.218 3999.999 842.297 3999.999 782.091 4001.878 780.217 4026.377 780.217 4023.544 782.28 4017.062 788.762 4012.186 796.524 4009.159 805.175 4008.133 814.284 4009.159 823.393 4012.187 832.044 4017.064 839.805 4018.133 840.875 4018.133 846.911 M 4201.609 595.333 4196.603 590.326 4188.842 585.449 4180.19 582.423 4174.256 581.754 4172.137 579.638 4200.787 579.633 4200.385 585.386 4201.411 594.494 4201.609 595.061 M 3053.385 503.797 3053.385 517.108 3054.455 518.178 3059.331 525.939 3062.359 534.591 3063.385 543.7 3062.359 552.808 3059.333 561.46 3054.456 569.221 3053.385 570.515 3053.384 574.657 3089.378 610.646 3092.378 602.07 3097.255 594.309 3103.737 587.827 3111.498 582.951 3120.15 579.923 3129.258 578.897 3131.402 579.138 3131.399 508.701 3131.443 507.06 3132.752 499.633 3053.125 499.633 3053.385 503.797 M 4009.092 1040.062 4420.861 1040.064 4421.931 1041.133 4429.692 1046.01 4433.029 1047.176 3845.14 1047.175 3843.267 1045.296 3843.264 897.314 3856.957 911.006 3864.315 916.449 3872.953 919.502 3878.856 920.066 3949.066 920.066 3958.133 918.703 3958.133 989.129 3959.486 998.18 3963.436 1006.447 3967.208 1011.016 3987.192 1031.002 3994.55 1036.445 4003.188 1039.498 4009.092 1040.062 M 3753.151 1129.043 5467.109 1129.043 5468.179 1130.112 5475.94 1134.989 5481.221 1136.836 5470.296 1147.767 3583.339 1147.767 3632.431 1098.684 3638.364 1098.016 3647.016 1094.989 3654.777 1090.111 3661.259 1083.629 3666.136 1075.868 3669.162 1067.217 3670.188 1058.109 3669.162 1048.999 3666.134 1040.348 3662.176 1034.049 3676.312 1034.054 3677.6 1035.125 3685.361 1040.001 3694.014 1043.028 3702.188 1043.949 3702.188 1078.106 3703.543 1087.158 3707.493 1095.424 3711.263 1099.994 3731.251 1119.982 3738.609 1125.426 3747.247 1128.478 3753.151 1129.043 M 4928.51 708.456 4937.57 707.098 4940.49 707.098 4941.411 698.923 4944.438 690.272 4949.314 682.51 4950.384 681.44 4950.389 625.123 4947.159 621.254 4942.997 613.088 4940.756 604.2 4940.549 595.036 4941.204 591.835 4939.857 590.573 4928.913 579.633 4923.812 579.632 4928.197 586.612 4931.225 595.263 4932.251 604.373 4931.225 613.481 4928.199 622.133 4923.322 629.894 4922.252 630.964 4922.251 711.151 4928.51 708.456 M 5633.607 819.611 5630.579 810.959 5628.108 807.025 5631.461 805.595 5639.222 800.718 5639.583 800.357 5639.578 892.157 5624.636 907.096 5624.633 855.533 5625.704 854.241 5630.581 846.48 5633.607 837.827 5634.633 828.72 5633.607 819.611 M 3702.186 962.293 3694.011 963.214 3685.36 966.242 3677.599 971.119 3676.529 972.188 1674.533 972.188 1662.413 960.067 3700.312 960.066 3702.188 961.945 3702.188 962.193 M 2991.519 587.445 2991.519 570.292 2990.449 569.222 2985.573 561.461 2982.545 552.809 2981.519 543.701 2982.529 534.633 2966.944 534.64 2954.642 546.953 2959.078 548.504 2966.839 553.381 2973.321 559.863 2978.197 567.624 2981.225 576.276 2982.251 585.385 2981.225 594.493 2978.502 602.494 2978.507 757.334 3000.733 757.338 2999.352 753.393 2998.326 744.284 2999.352 735.175 3002.378 726.524 3007.255 718.762 3013.737 712.28 3021.498 707.403 3030.15 704.376 3039.258 703.35 3048.367 704.376 3057.019 707.403 3064.78 712.28 3065.85 713.35 3096.445 713.35 3098.326 711.472 3098.326 705.107 3090.151 704.187 3081.499 701.159 3073.738 696.283 3067.256 689.801 3062.38 682.04 3059.352 673.389 3058.683 667.456 3000.579 609.346 2997.159 605.281 2993.056 597.102 2991.525 588.069 2991.519 587.445 M 3764.056 949.153 3764.058 1065.296 3765.947 1067.175 3782.752 1067.158 3781.398 1058.107 3781.382 903.648 3775.939 911.006 3760.939 926.006 3757.312 929.854 3761.896 937.776 3763.959 946.701 3764.056 949.153 M 5547.826 448.721 5547.826 529.934 5549.709 531.814 5589.094 531.814 5588.074 531.199 5580.855 525.544 5574.371 519.062 5568.714 511.844 5563.969 503.998 5560.205 495.637 5557.476 486.882 5555.822 477.864 5555.267 468.712 5555.819 459.558 5557.47 450.539 5560.197 441.784 5563.959 433.422 5564.696 432.204 5543.052 432.2 M 5495.032 564.633 5498.758 568.357 5495.032 564.633 M 5547.819 448.103 5546.285 439.062 5547.819 448.103 M 617.036 873.768 614.973 864.843 610.39 856.92 608.073 854.327 590.875 837.128 616.418 837.133 618.305 839.014 618.305 1081.519 617.235 1082.588 617.136 1082.747 617.133 876.221 617.036 873.768 M 5571.842 770.604 5573.124 771.893 5573.793 777.826 5576.821 786.477 5579.292 790.411 5579.175 790.708 5575.939 791.84 5568.178 796.717 5561.696 803.199 5556.819 810.961 5553.793 819.612 5552.767 828.721 5553.793 837.83 5556.821 846.481 5561.697 854.242 5562.767 855.312 5562.771 938.436 5555.956 938.436 5555.956 1052.27 5555.376 1053.728 5554.77 1055.461 5554.242 1057.221 5553.793 1059.002 5553.424 1060.802 5553.137 1062.616 5552.931 1064.443 5552.881 1065.182 5532.627 1085.436 5530.579 1080.348 5525.703 1072.587 5522.165 1069.049 5531.444 1069.043 5531.444 968.414 5534.23 966.376 5540.712 959.894 5545.588 952.133 5548.615 943.481 5549.641 934.373 5548.615 925.263 5545.587 916.612 5540.71 908.851 5539.641 907.781 5539.641 776.78 5563.107 753.308 5564.121 757.768 5568.07 766.033 5571.842 770.604 M 1625.71 553.309 1657.26 521.763 1657.539 517.646 1660.174 508.867 1661.018 507.38 1634.905 507.376 1478.943 663.342 1517.333 663.342 1522.624 663.797 1531.31 666.679 1538.779 671.985 1559.205 692.401 1562.624 696.465 1566.729 704.645 1568.259 713.678 1568.266 754.88 1568.271 757.334 1616.642 757.334 1616.636 703.317 1616.636 575.197 1617.091 569.906 1619.973 561.22 1625.279 553.751 1625.71 553.309 M 1435.192 619.599 1435.192 481.516 1437.073 479.633 1575.148 479.633 1435.188 619.599 M 1831.399 576.464 1831.406 757.334 1804.903 757.334 1804.903 802.915 1803.594 802.26 1794.941 799.234 1785.833 798.208 1776.725 799.234 1768.073 802.262 1760.312 807.138 1753.83 813.62 1748.953 821.381 1745.927 830.033 1744.901 839.142 1745.927 848.25 1748.955 856.902 1753.831 864.663 1760.313 871.145 1768.074 876.022 1776.726 879.048 1782.659 879.717 1801.149 898.203 1508.448 898.2 1506.57 896.319 1506.574 880.066 1704.998 880.066 1704.998 757.334 1678.507 757.334 1678.502 588.015 1696.878 569.634 1696.881 666.182 1692.062 671.262 1687.186 679.024 1684.159 687.675 1683.133 696.784 1684.159 705.893 1687.187 714.544 1692.064 722.305 1698.545 728.787 1706.306 733.663 1714.959 736.691 1724.067 737.716 1733.175 736.69 1741.827 733.662 1749.588 728.785 1756.07 722.304 1760.947 714.543 1763.973 705.89 1764.999 696.783 1763.973 687.674 1760.945 679.022 1758.75 675.528 1758.747 509.245 1760.627 507.373 2098.273 507.373 2104.59 509.178 2109.881 509.633 2318.326 509.633 2318.326 554.629 2316.839 553.381 2309.078 548.504 2300.426 545.478 2291.317 544.452 2282.209 545.478 2273.557 548.506 2265.796 553.382 2259.7 559.478 2259.123 558.627 2255.704 554.562 2235.704 534.562 2228.346 529.12 2219.708 526.067 2213.804 525.503 1882.333 525.503 1873.281 526.856 1865.015 530.806 1860.445 534.578 1840.46 554.564 1835.016 561.922 1831.964 570.56 1831.399 576.464 M 2403.934 867.787 2408.317 859.742 2410.149 850.775 2410.192 849.133 2410.196 727.52 2414.97 729.191 2424.079 730.216 2433.187 729.19 2441.839 726.162 2449.6 721.285 2450.67 720.216 2524.155 720.21 2533.179 718.679 2541.36 714.575 2545.423 711.157 2570.624 685.96 2576.557 685.292 2585.209 682.264 2591.629 678.23 2591.636 757.335 2565.14 757.343 2551.389 757.334 2454.903 757.334 2454.903 878.201 2393.934 878.2 2401.119 871.02 2403.934 867.787 M 3988.469 718.356 3979.436 719.886 3971.256 723.991 3967.192 727.41 3953.495 741.107 3953.497 694.985 3959.882 694.554 3968.661 691.917 3971.658 690.216 4047.692 690.217 4048.762 691.287 4056.524 696.163 4065.175 699.191 4074.284 700.216 4083.393 699.19 4092.044 696.162 4099.805 691.285 4106.287 684.804 4111.163 677.043 4114.191 668.39 4115.216 659.283 4114.19 650.174 4111.162 641.522 4106.285 633.76 4099.804 627.28 4092.043 622.403 4083.39 619.376 4074.283 618.35 4065.174 619.376 4056.522 622.403 4048.76 627.28 4047.691 628.351 3994.49 628.346 3996.225 623.386 3996.894 617.455 4014.712 599.632 4104.644 599.633 4130.507 625.507 4131.175 631.439 4134.203 640.091 4139.079 647.852 4145.561 654.334 4153.322 659.21 4161.974 662.237 4171.083 663.263 4180.191 662.237 4188.843 659.209 4196.604 654.333 4203.086 647.851 4207.962 640.09 4210.989 631.438 4212.015 622.33 4210.989 613.221 4210.791 612.654 4215.797 617.389 4216.638 617.917 4216.634 757.334 4212.354 757.334 4209.123 751.473 4205.703 747.41 4185.271 726.986 4177.808 721.688 4169.121 718.805 4163.83 718.35 3988.469 718.356 M 3774.086 717.334 3838.83 717.334 3844.12 717.789 3852.808 720.671 3860.276 725.977 3880.703 746.394 3884.121 750.457 3887.766 757.334 3891.634 757.334 3891.638 617.917 3890.797 617.389 3884.315 610.907 3879.439 603.146 3876.411 594.494 3875.385 585.386 3875.784 579.633 3736.878 579.633 3734.999 581.51 3734.999 619.006 3743.174 619.927 3751.826 622.953 3759.587 627.83 3766.069 634.312 3770.945 642.073 3773.973 650.725 3774.999 659.834 3773.973 668.941 3770.947 677.594 3766.07 685.355 3765.001 686.424 3764.999 718.696 3774.086 717.334 M 5071.205 599.627 5080.238 598.096 5088.419 593.993 5092.482 590.573 5105.956 577.104 5105.956 698.964 5231.444 698.964 5281.444 698.955 5312.77 698.964 5312.767 741.216 5311.696 742.51 5306.819 750.272 5303.793 758.923 5302.767 768.032 5303.793 777.141 5306.821 785.792 5311.697 793.553 5318.179 800.035 5325.94 804.911 5334.592 807.939 5343.701 808.964 5352.809 807.938 5361.461 804.91 5369.222 800.033 5375.704 793.552 5380.581 785.791 5383.607 777.138 5384.633 768.031 5383.607 758.922 5380.579 750.27 5375.703 742.508 5374.633 741.439 5374.633 698.961 5383.515 698.964 5457.781 698.964 5457.775 836.314 5455.896 838.2 5234.304 838.2 5234.633 833.035 5233.607 823.926 5230.579 815.273 5225.703 807.512 5219.221 801.032 5211.46 796.155 5202.808 793.128 5193.699 792.102 5184.591 793.128 5175.939 796.155 5168.178 801.032 5167.108 802.103 5105.915 802.102 5104.634 801.032 5096.872 796.155 5088.221 793.128 5079.112 792.102 5070.003 793.128 5061.352 796.155 5053.591 801.032 5047.109 807.514 5042.233 815.276 5039.205 823.927 5038.18 833.036 5038.762 838.204 4954.999 838.2 4954.997 777.554 4956.459 775.276 4959.327 768.96 4994.504 768.964 4995.797 770.035 5003.558 774.911 5012.21 777.939 5021.319 778.964 5030.427 777.938 5039.079 774.91 5046.84 770.033 5053.322 763.552 5058.199 755.791 5061.225 747.138 5062.251 738.031 5061.225 728.922 5058.197 720.27 5053.321 712.508 5046.839 706.028 5039.078 701.151 5030.426 698.124 5021.317 697.098 5020.775 697.159 5018.197 690.27 5013.321 682.508 5012.251 681.439 5012.251 625.51 5016.46 619.691 5020.25 611.344 5022.087 602.364 5022.209 599.634 5071.205 599.627 M 4112.043 945.935 4107.935 937.751 4106.405 928.718 4106.398 882.936 4106.394 880.066 4079.999 880.064 4079.999 945.308 4081.888 947.187 4112.981 947.187 4112.043 945.935 M 4431.405 889.73 4432.935 898.763 4437.04 906.943 4440.459 911.007 4446.642 917.188 4430.091 917.187 4429.17 909.011 4426.142 900.36 4421.266 892.599 4420.196 891.529 4420.197 880.066 4431.393 880.066 4431.405 889.73 M 1935.385 745.117 1935.385 617.501 1934.315 616.431 1929.439 608.67 1926.411 600.019 1925.385 590.91 1925.532 587.369 1895.146 587.369 1893.266 589.242 1893.271 757.334 1937.893 757.334 M 1935.392 745.738 1936.926 754.779 1935.392 745.738 M 699.266 930.066 834.171 930.067 835.092 938.242 838.12 946.894 842.997 954.655 845.674 957.333 804.953 957.334 804.953 1077.819 803.414 1077.932 801.588 1078.137 799.773 1078.426 790.995 1081.062 783.023 1085.586 776.258 1091.771 771.039 1099.306 767.627 1107.814 766.193 1116.867 766.255 1117.77 716.036 1117.767 714.756 1116.696 706.994 1111.819 698.343 1108.793 690.169 1107.872 689.146 1098.999 686.119 1090.348 681.242 1082.587 680.171 1081.518 680.172 923.494 684.724 926.449 693.361 929.502 699.266 930.066 M 2184.306 702.39 2069.284 587.369 2201.015 587.369 2202.897 589.249 2202.897 749.951 2202.359 745.174 2199.331 736.522 2194.455 728.76 2193.385 727.691 2193.385 724.281 2192.031 715.23 2188.082 706.964 2184.306 702.39" fill="none" stroke-width="25"/><use xlink:href="#zMeUMCejKWTY7VN2O7fw_pad-18" x="5093.7" y="633.661"/><use xlink:href="#zMeUMCejKWTY7VN2O7fw_pad-18" x="5143.7" y="633.661"/><use xlink:href="#zMeUMCejKWTY7VN2O7fw_pad-18" x="5193.7" y="633.661"/><use xlink:href="#zMeUMCejKWTY7VN2O7fw_pad-18" x="5243.7" y="633.661"/><use xlink:href="#zMeUMCejKWTY7VN2O7fw_pad-18" x="5293.7" y="633.661"/><use xlink:href="#zMeUMCejKWTY7VN2O7fw_pad-18" x="5343.7" y="633.661"/><use xlink:href="#zMeUMCejKWTY7VN2O7fw_pad-18" x="5393.7" y="633.661"/><use xlink:href="#zMeUMCejKWTY7VN2O7fw_pad-18" x="5443.7" y="633.661"/><use xlink:href="#zMeUMCejKWTY7VN2O7fw_pad-18" x="5493.7" y="633.661"/><use xlink:href="#zMeUMCejKWTY7VN2O7fw_pad-18" x="5543.7" y="633.661"/><use xlink:href="#zMeUMCejKWTY7VN2O7fw_pad-18" x="5593.7" y="633.661"/><use xlink:href="#zMeUMCejKWTY7VN2O7fw_pad-18" x="5643.7" y="633.661"/><use xlink:href="#zMeUMCejKWTY7VN2O7fw_pad-18" x="5643.7" y="1003.739"/><use xlink:href="#zMeUMCejKWTY7VN2O7fw_pad-18" x="5593.7" y="1003.739"/><use xlink:href="#zMeUMCejKWTY7VN2O7fw_pad-18" x="5543.7" y="1003.739"/><use xlink:href="#zMeUMCejKWTY7VN2O7fw_pad-18" x="5493.7" y="1003.739"/><use xlink:href="#zMeUMCejKWTY7VN2O7fw_pad-18" x="5443.7" y="1003.739"/><use xlink:href="#zMeUMCejKWTY7VN2O7fw_pad-18" x="5393.7" y="1003.739"/><use xlink:href="#zMeUMCejKWTY7VN2O7fw_pad-18" x="5343.7" y="1003.739"/><use xlink:href="#zMeUMCejKWTY7VN2O7fw_pad-18" x="5293.7" y="1003.739"/><use xlink:href="#zMeUMCejKWTY7VN2O7fw_pad-18" x="5243.7" y="1003.739"/><use xlink:href="#zMeUMCejKWTY7VN2O7fw_pad-18" x="5193.7" y="1003.739"/><use xlink:href="#zMeUMCejKWTY7VN2O7fw_pad-18" x="5143.7" y="1003.739"/><use xlink:href="#zMeUMCejKWTY7VN2O7fw_pad-18" x="5093.7" y="1003.739"/><use xlink:href="#zMeUMCejKWTY7VN2O7fw_pad-19" x="1212.333" y="818.7"/><use xlink:href="#zMeUMCejKWTY7VN2O7fw_pad-19" x="1322.569" y="818.7"/><use xlink:href="#zMeUMCejKWTY7VN2O7fw_pad-19" x="1537.333" y="818.7"/><use xlink:href="#zMeUMCejKWTY7VN2O7fw_pad-19" x="1647.569" y="818.7"/><use xlink:href="#zMeUMCejKWTY7VN2O7fw_pad-19" x="1862.333" y="818.7"/><use xlink:href="#zMeUMCejKWTY7VN2O7fw_pad-19" x="1972.569" y="818.7"/><use xlink:href="#zMeUMCejKWTY7VN2O7fw_pad-19" x="2187.333" y="818.7"/><use xlink:href="#zMeUMCejKWTY7VN2O7fw_pad-19" x="2297.569" y="818.7"/><use xlink:href="#zMeUMCejKWTY7VN2O7fw_pad-19" x="2512.333" y="818.7"/><use xlink:href="#zMeUMCejKWTY7VN2O7fw_pad-19" x="2622.569" y="818.7"/><use xlink:href="#zMeUMCejKWTY7VN2O7fw_pad-19" x="2837.333" y="818.7"/><use xlink:href="#zMeUMCejKWTY7VN2O7fw_pad-19" x="2947.569" y="818.7"/><use xlink:href="#zMeUMCejKWTY7VN2O7fw_pad-19" x="3162.333" y="818.7"/><use xlink:href="#zMeUMCejKWTY7VN2O7fw_pad-19" x="3272.569" y="818.7"/><use xlink:href="#zMeUMCejKWTY7VN2O7fw_pad-19" x="3487.333" y="818.7"/><use xlink:href="#zMeUMCejKWTY7VN2O7fw_pad-19" x="3597.569" y="818.7"/><use xlink:href="#zMeUMCejKWTY7VN2O7fw_pad-19" x="3812.331" y="818.7"/><use xlink:href="#zMeUMCejKWTY7VN2O7fw_pad-19" x="3922.567" y="818.7"/><use xlink:href="#zMeUMCejKWTY7VN2O7fw_pad-19" x="4137.331" y="818.7"/><use xlink:href="#zMeUMCejKWTY7VN2O7fw_pad-19" x="4247.567" y="818.7"/><use xlink:href="#zMeUMCejKWTY7VN2O7fw_pad-19" x="4462.331" y="818.7"/><use xlink:href="#zMeUMCejKWTY7VN2O7fw_pad-19" x="4572.567" y="818.7"/><use xlink:href="#zMeUMCejKWTY7VN2O7fw_pad-19" x="4787.331" y="818.7"/><use xlink:href="#zMeUMCejKWTY7VN2O7fw_pad-19" x="4897.567" y="818.7"/><use xlink:href="#zMeUMCejKWTY7VN2O7fw_pad-19" x="972.619" y="1018.7"/><use xlink:href="#zMeUMCejKWTY7VN2O7fw_pad-19" x="862.382" y="1018.7"/><use xlink:href="#zMeUMCejKWTY7VN2O7fw_pad-19" x="972.619" y="818.7"/><use xlink:href="#zMeUMCejKWTY7VN2O7fw_pad-19" x="862.382" y="818.7"/><use xlink:href="#zMeUMCejKWTY7VN2O7fw_pad-20" x="456.2" y="606.2"/><use xlink:href="#zMeUMCejKWTY7VN2O7fw_pad-21" x="456.2" y="656.2"/><use xlink:href="#zMeUMCejKWTY7VN2O7fw_pad-21" x="456.2" y="706.2"/><use xlink:href="#zMeUMCejKWTY7VN2O7fw_pad-21" x="456.2" y="756.2"/><use xlink:href="#zMeUMCejKWTY7VN2O7fw_pad-21" x="456.2" y="806.2"/><use xlink:href="#zMeUMCejKWTY7VN2O7fw_pad-21" x="456.2" y="856.2"/><use xlink:href="#zMeUMCejKWTY7VN2O7fw_pad-21" x="456.2" y="906.2"/><use xlink:href="#zMeUMCejKWTY7VN2O7fw_pad-21" x="456.2" y="956.2"/><use xlink:href="#zMeUMCejKWTY7VN2O7fw_pad-21" x="456.2" y="1006.2"/><use xlink:href="#zMeUMCejKWTY7VN2O7fw_pad-19" x="972.619" y="618.7"/><use xlink:href="#zMeUMCejKWTY7VN2O7fw_pad-19" x="862.382" y="618.7"/></g><g id="HbiarsipoaJ5Uf_qgBjO_top_drill1"><use xlink:href="#a95BNXZ9tULB81MCFv91_pad-1" x="5051.1" y="803.3"/><use xlink:href="#a95BNXZ9tULB81MCFv91_pad-1" x="5079.4" y="833.3"/><use xlink:href="#a95BNXZ9tULB81MCFv91_pad-1" x="5021.6" y="738.3"/><use xlink:href="#a95BNXZ9tULB81MCFv91_pad-1" x="4981.6" y="708.3"/><use xlink:href="#a95BNXZ9tULB81MCFv91_pad-1" x="4921.6" y="754.6"/><use xlink:href="#a95BNXZ9tULB81MCFv91_pad-1" x="4891.6" y="604.7"/><use xlink:href="#a95BNXZ9tULB81MCFv91_pad-1" x="4981.6" y="599"/><use xlink:href="#a95BNXZ9tULB81MCFv91_pad-1" x="5045.9" y="539"/><use xlink:href="#a95BNXZ9tULB81MCFv91_pad-1" x="5085.9" y="539"/><use xlink:href="#a95BNXZ9tULB81MCFv91_pad-1" x="5244" y="539"/><use xlink:href="#a95BNXZ9tULB81MCFv91_pad-1" x="5294" y="499"/><use xlink:href="#a95BNXZ9tULB81MCFv91_pad-1" x="5344" y="768.3"/><use xlink:href="#a95BNXZ9tULB81MCFv91_pad-1" x="5194" y="833.3"/><use xlink:href="#a95BNXZ9tULB81MCFv91_pad-1" x="5020.2" y="978.4"/><use xlink:href="#a95BNXZ9tULB81MCFv91_pad-1" x="4740.9" y="874.6"/><use xlink:href="#a95BNXZ9tULB81MCFv91_pad-1" x="4781.4" y="653.7"/><use xlink:href="#a95BNXZ9tULB81MCFv91_pad-1" x="4566.6" y="599"/><use xlink:href="#a95BNXZ9tULB81MCFv91_pad-1" x="4359.6" y="588.3"/><use xlink:href="#a95BNXZ9tULB81MCFv91_pad-1" x="4299.6" y="627.6"/><use xlink:href="#a95BNXZ9tULB81MCFv91_pad-1" x="4241.6" y="585.7"/><use xlink:href="#a95BNXZ9tULB81MCFv91_pad-1" x="4171.4" y="622.6"/><use xlink:href="#a95BNXZ9tULB81MCFv91_pad-1" x="4074.6" y="659.6"/><use xlink:href="#a95BNXZ9tULB81MCFv91_pad-1" x="3952.9" y="654.6"/><use xlink:href="#a95BNXZ9tULB81MCFv91_pad-1" x="3956.6" y="614.6"/><use xlink:href="#a95BNXZ9tULB81MCFv91_pad-1" x="3916.6" y="585.7"/><use xlink:href="#a95BNXZ9tULB81MCFv91_pad-1" x="3734.4" y="660.1"/><use xlink:href="#a95BNXZ9tULB81MCFv91_pad-1" x="3674.4" y="660.1"/><use xlink:href="#a95BNXZ9tULB81MCFv91_pad-1" x="3674.4" y="734.6"/><use xlink:href="#a95BNXZ9tULB81MCFv91_pad-1" x="3674.4" y="814.6"/><use xlink:href="#a95BNXZ9tULB81MCFv91_pad-1" x="3703.4" y="1003.4"/><use xlink:href="#a95BNXZ9tULB81MCFv91_pad-1" x="3629.6" y="1058.4"/><use xlink:href="#a95BNXZ9tULB81MCFv91_pad-1" x="3392.7" y="784.6"/><use xlink:href="#a95BNXZ9tULB81MCFv91_pad-1" x="3329.4" y="744.6"/><use xlink:href="#a95BNXZ9tULB81MCFv91_pad-1" x="3324.6" y="699.6"/><use xlink:href="#a95BNXZ9tULB81MCFv91_pad-1" x="3324.6" y="634.6"/><use xlink:href="#a95BNXZ9tULB81MCFv91_pad-1" x="3392.7" y="660.1"/><use xlink:href="#a95BNXZ9tULB81MCFv91_pad-1" x="3266.6" y="585.7"/><use xlink:href="#a95BNXZ9tULB81MCFv91_pad-1" x="3129.6" y="620.1"/><use xlink:href="#a95BNXZ9tULB81MCFv91_pad-1" x="3099.6" y="664.6"/><use xlink:href="#a95BNXZ9tULB81MCFv91_pad-1" x="3039.6" y="744.6"/><use xlink:href="#a95BNXZ9tULB81MCFv91_pad-1" x="2941.6" y="585.7"/><use xlink:href="#a95BNXZ9tULB81MCFv91_pad-1" x="3022.8" y="544"/><use xlink:href="#a95BNXZ9tULB81MCFv91_pad-1" x="2812.8" y="645.7"/><use xlink:href="#a95BNXZ9tULB81MCFv91_pad-1" x="2616.6" y="585.7"/><use xlink:href="#a95BNXZ9tULB81MCFv91_pad-1" x="2567.7" y="645.7"/><use xlink:href="#a95BNXZ9tULB81MCFv91_pad-1" x="2424.4" y="615.7"/><use xlink:href="#a95BNXZ9tULB81MCFv91_pad-1" x="2424.4" y="689.6"/><use xlink:href="#a95BNXZ9tULB81MCFv91_pad-1" x="2349.6" y="744.6"/><use xlink:href="#a95BNXZ9tULB81MCFv91_pad-1" x="2291.6" y="585.7"/><use xlink:href="#a95BNXZ9tULB81MCFv91_pad-1" x="2349.6" y="479"/><use xlink:href="#a95BNXZ9tULB81MCFv91_pad-1" x="2162.8" y="754.6"/><use xlink:href="#a95BNXZ9tULB81MCFv91_pad-1" x="2075.9" y="744.6"/><use xlink:href="#a95BNXZ9tULB81MCFv91_pad-1" x="2075.9" y="837.8"/><use xlink:href="#a95BNXZ9tULB81MCFv91_pad-1" x="2024.6" y="897.8"/><use xlink:href="#a95BNXZ9tULB81MCFv91_pad-1" x="2054.6" y="973.4"/><use xlink:href="#a95BNXZ9tULB81MCFv91_pad-1" x="1786.1" y="839.4"/><use xlink:href="#a95BNXZ9tULB81MCFv91_pad-1" x="1724.4" y="697.1"/><use xlink:href="#a95BNXZ9tULB81MCFv91_pad-1" x="1698.1" y="525.3"/><use xlink:href="#a95BNXZ9tULB81MCFv91_pad-1" x="1966.6" y="591.2"/><use xlink:href="#a95BNXZ9tULB81MCFv91_pad-1" x="1996.6" y="626.7"/><use xlink:href="#a95BNXZ9tULB81MCFv91_pad-1" x="2024.9" y="586.7"/><use xlink:href="#a95BNXZ9tULB81MCFv91_pad-1" x="1475.9" y="734.6"/><use xlink:href="#a95BNXZ9tULB81MCFv91_pad-1" x="1434.6" y="664.6"/><use xlink:href="#a95BNXZ9tULB81MCFv91_pad-1" x="1374.6" y="699.6"/><use xlink:href="#a95BNXZ9tULB81MCFv91_pad-1" x="1374.6" y="575.7"/><use xlink:href="#a95BNXZ9tULB81MCFv91_pad-1" x="1373.1" y="525.3"/><use xlink:href="#a95BNXZ9tULB81MCFv91_pad-1" x="1277.4" y="459"/><use xlink:href="#a95BNXZ9tULB81MCFv91_pad-1" x="1049.4" y="449"/><use xlink:href="#a95BNXZ9tULB81MCFv91_pad-1" x="807.4" y="506.5"/><use xlink:href="#a95BNXZ9tULB81MCFv91_pad-1" x="749.1" y="568.3"/><use xlink:href="#a95BNXZ9tULB81MCFv91_pad-1" x="779.1" y="759.6"/><use xlink:href="#a95BNXZ9tULB81MCFv91_pad-1" x="682.1" y="756.5"/><use xlink:href="#a95BNXZ9tULB81MCFv91_pad-1" x="725.3" y="869.4"/><use xlink:href="#a95BNXZ9tULB81MCFv91_pad-1" x="875.3" y="929.4"/><use xlink:href="#a95BNXZ9tULB81MCFv91_pad-1" x="1030.3" y="838.6"/><use xlink:href="#a95BNXZ9tULB81MCFv91_pad-1" x="1060.3" y="899.4"/><use xlink:href="#a95BNXZ9tULB81MCFv91_pad-1" x="1140.9" y="983.4"/><use xlink:href="#a95BNXZ9tULB81MCFv91_pad-1" x="1287.7" y="983.4"/><use xlink:href="#a95BNXZ9tULB81MCFv91_pad-1" x="1030.3" y="759.6"/><use xlink:href="#a95BNXZ9tULB81MCFv91_pad-1" x="807.4" y="1119"/><use xlink:href="#a95BNXZ9tULB81MCFv91_pad-1" x="689.5" y="1149"/><use xlink:href="#a95BNXZ9tULB81MCFv91_pad-1" x="649.5" y="1108.4"/><use xlink:href="#a95BNXZ9tULB81MCFv91_pad-1" x="556.5" y="1149"/><use xlink:href="#a95BNXZ9tULB81MCFv91_pad-1" x="549" y="937.2"/><use xlink:href="#a95BNXZ9tULB81MCFv91_pad-1" x="519" y="906.5"/><use xlink:href="#a95BNXZ9tULB81MCFv91_pad-1" x="509" y="564"/><use xlink:href="#a95BNXZ9tULB81MCFv91_pad-1" x="2587.7" y="1033.4"/><use xlink:href="#a95BNXZ9tULB81MCFv91_pad-1" x="2674.6" y="973.4"/><use xlink:href="#a95BNXZ9tULB81MCFv91_pad-1" x="3237.7" y="1033.4"/><use xlink:href="#a95BNXZ9tULB81MCFv91_pad-1" x="3329.4" y="827"/><use xlink:href="#a95BNXZ9tULB81MCFv91_pad-1" x="3591.6" y="585.7"/><use xlink:href="#a95BNXZ9tULB81MCFv91_pad-1" x="3999.4" y="883.4"/><use xlink:href="#a95BNXZ9tULB81MCFv91_pad-1" x="4049.4" y="814.6"/><use xlink:href="#a95BNXZ9tULB81MCFv91_pad-1" x="4304.4" y="814.6"/><use xlink:href="#a95BNXZ9tULB81MCFv91_pad-1" x="4299.6" y="744.6"/><use xlink:href="#a95BNXZ9tULB81MCFv91_pad-1" x="4359.6" y="704.6"/><use xlink:href="#a95BNXZ9tULB81MCFv91_pad-1" x="4389.6" y="918.4"/><use xlink:href="#a95BNXZ9tULB81MCFv91_pad-1" x="4447.8" y="1009.4"/><use xlink:href="#a95BNXZ9tULB81MCFv91_pad-1" x="5494" y="1098.4"/><use xlink:href="#a95BNXZ9tULB81MCFv91_pad-1" x="5594" y="1068.4"/><use xlink:href="#a95BNXZ9tULB81MCFv91_pad-1" x="5509" y="934.7"/><use xlink:href="#a95BNXZ9tULB81MCFv91_pad-1" x="5544" y="904.7"/><use xlink:href="#a95BNXZ9tULB81MCFv91_pad-1" x="5594" y="829"/><use xlink:href="#a95BNXZ9tULB81MCFv91_pad-1" x="5614" y="769"/><use xlink:href="#a95BNXZ9tULB81MCFv91_pad-1" x="5644" y="563"/><use xlink:href="#a95BNXZ9tULB81MCFv91_pad-2" x="469" y="469"/><use xlink:href="#a95BNXZ9tULB81MCFv91_pad-2" x="469" y="1169"/><use xlink:href="#a95BNXZ9tULB81MCFv91_pad-2" x="5631.5" y="1169"/><use xlink:href="#a95BNXZ9tULB81MCFv91_pad-2" x="5631.5" y="469"/></g><clipPath id="HbiarsipoaJ5Uf_qgBjO_top_outline"><path d="M 393.7 393.7 393.7 1243.7 5706.2 1243.7 5706.2 393.7 393.7 393.7" fill="none" stroke-width="5.512"/></clipPath><mask id="HbiarsipoaJ5Uf_qgBjO_top_mech-mask"><g fill="#000" stroke="#000"><rect x="393.7" y="393.7" width="5312.5" height="850" fill="#fff"/><use xlink:href="#HbiarsipoaJ5Uf_qgBjO_top_drill1"/></g></mask><mask id="HbiarsipoaJ5Uf_qgBjO_top_cf-mask"><g fill="#fff" stroke="#fff"><use xlink:href="#HbiarsipoaJ5Uf_qgBjO_top_soldermask"/></g></mask><mask id="HbiarsipoaJ5Uf_qgBjO_top_sm-mask"><g fill="#000" stroke="#000"><rect x="393.7" y="393.7" width="5312.5" height="850" fill="#fff"/><use xlink:href="#HbiarsipoaJ5Uf_qgBjO_top_soldermask"/></g></mask></defs><g transform="translate(0,1637.4) scale(1,-1)"><g mask="url(#HbiarsipoaJ5Uf_qgBjO_top_mech-mask)" clip-path="url(#HbiarsipoaJ5Uf_qgBjO_top_outline)"><rect x="393.7" y="393.7" width="5312.5" height="850" fill="currentColor" class="HbiarsipoaJ5Uf_qgBjO_fr4"/><use xlink:href="#HbiarsipoaJ5Uf_qgBjO_top_copper" fill="currentColor" stroke="currentColor" class="HbiarsipoaJ5Uf_qgBjO_cu"/><use xlink:href="#HbiarsipoaJ5Uf_qgBjO_top_copper" fill="currentColor" stroke="currentColor" class="HbiarsipoaJ5Uf_qgBjO_cf" mask="url(#HbiarsipoaJ5Uf_qgBjO_top_cf-mask)"/><g mask="url(#HbiarsipoaJ5Uf_qgBjO_top_sm-mask)"><rect x="393.7" y="393.7" width="5312.5" height="850" fill="currentColor" class="HbiarsipoaJ5Uf_qgBjO_sm"/><use xlink:href="#HbiarsipoaJ5Uf_qgBjO_top_silkscreen" fill="currentColor" stroke="currentColor" class="HbiarsipoaJ5Uf_qgBjO_ss"/></g><use xlink:href="#HbiarsipoaJ5Uf_qgBjO_top_solderpaste" fill="currentColor" stroke="currentColor" class="HbiarsipoaJ5Uf_qgBjO_sp"/></g></g></svg>